<svg xmlns="http://www.w3.org/2000/svg" width="24" height="24" viewBox="0 0 24 24"><g fill="none"><path d="m12.593 23.258l-.011.002l-.071.035l-.02.004l-.014-.004l-.071-.035q-.016-.005-.024.005l-.004.01l-.017.428l.005.02l.01.013l.104.074l.015.004l.012-.004l.104-.074l.012-.016l.004-.017l-.017-.427q-.004-.016-.017-.018m.265-.113l-.013.002l-.185.093l-.01.01l-.003.011l.018.43l.005.012l.008.007l.201.093q.019.005.029-.008l.004-.014l-.034-.614q-.005-.018-.02-.022m-.715.002a.02.02 0 0 0-.027.006l-.006.014l-.034.614q.001.018.017.024l.015-.002l.201-.093l.01-.008l.004-.011l.017-.43l-.003-.012l-.01-.01z"/><path fill="currentColor" d="M20.893 16.578A9.96 9.96 0 0 0 22 12c0-5.523-4.477-10-10-10S2 6.477 2 12s4.477 10 10 10a9.98 9.98 0 0 0 7.794-3.735l-.725-.362a258 258 0 0 1-3.192-1.484c-.805-.379-1.522-.716-2.18-1.013a8.6 8.6 0 0 1-.927 1.114C11.648 17.64 10.52 18 9.5 18C7.632 18 6 16.82 6 15c0-1.684 1.48-3 3-3c1.268 0 2.494.334 3.887.884q.318-.609.647-1.384H9a1 1 0 1 1 0-2h2V9H8a1 1 0 0 1 0-2h3V6a1 1 0 1 1 2 0v1h3a1 1 0 1 1 0 2h-3v.5h2a1 1 0 0 1 .94 1.342a25 25 0 0 1-1.212 2.835q.941.432 2.06.96c.938.442 1.975.93 3.126 1.453l.033.016z"/><path fill="currentColor" d="M9 14c.827 0 1.687.194 2.797.608a6 6 0 0 1-.442.497C10.602 15.86 9.98 16 9.5 16C8.368 16 8 15.38 8 15c0-.516.52-1 1-1"/></g></svg>