<?xml version="1.0" encoding="UTF-8"?>
<!-- Generator: visioncortex VTracer -->
<svg id="svg" version="1.1" xmlns="http://www.w3.org/2000/svg" style="display: block;" viewBox="0 0 531 365"><path d="M0 0 C5.23877032 5.98716608 6.16315226 13.94605487 7.23828125 21.62890625 C7.37318466 22.55066147 7.50808807 23.47241669 7.64707947 24.42210388 C8.0880457 27.46746917 8.51423031 30.51462728 8.9375 33.5625 C9.08707153 34.62621826 9.23664307 35.68993652 9.39074707 36.78588867 C16.81697685 89.82365665 21.84515758 142.92154477 21.9375 196.5 C21.94314972 198.29809113 21.94314972 198.29809113 21.94891357 200.13250732 C22.06037468 269.66146375 22.06037468 269.66146375 8.625 291 C4.19979491 295.21613702 -0.071179 297.43421914 -5.74609375 299.59375 C-6.54547867 299.90775757 -7.34486359 300.22176514 -8.16847229 300.54528809 C-9.8565653 301.20596092 -11.54679972 301.86118545 -13.23901367 302.51123047 C-15.77797581 303.48673532 -18.31027815 304.47801645 -20.84179688 305.47265625 C-52.39978487 317.8051812 -52.39978487 317.8051812 -59.375 315 C-65.23971053 311.13104425 -69.18372355 305.59231828 -73.1875 299.9375 C-74.42341536 298.22579389 -75.66039737 296.51485744 -76.8984375 294.8046875 C-77.49495117 293.97678711 -78.09146484 293.14888672 -78.70605469 292.29589844 C-80.85469955 289.34009734 -83.07105306 286.44864406 -85.3125 283.5625 C-89.66905914 277.95218486 -93.93432108 272.27589484 -98.19140625 266.58984375 C-99.23028992 265.20339661 -99.23028992 265.20339661 -100.29016113 263.78894043 C-101.98551994 261.5262688 -103.6804554 259.26328142 -105.375 257 C-105.38086624 257.7014061 -105.38673248 258.40281219 -105.39277649 259.12547302 C-105.45127906 265.81622706 -105.52366943 272.50668063 -105.61071491 279.19712734 C-105.65497508 282.63472987 -105.69432075 286.07222585 -105.72143555 289.51000977 C-106.05546995 330.51375014 -106.05546995 330.51375014 -114.70561218 340.54270935 C-116.74351773 342.32169723 -118.64074084 343.10025441 -121.16601562 344.06884766 C-122.1371228 344.44578766 -123.10822998 344.82272766 -124.10876465 345.21109009 C-125.15568481 345.60807098 -126.20260498 346.00505188 -127.28125 346.4140625 C-128.35749634 346.82917084 -129.43374268 347.24427917 -130.54260254 347.67196655 C-133.98390483 348.99714923 -137.42937601 350.31110073 -140.875 351.625 C-143.19689038 352.51751201 -145.51850847 353.41073274 -147.83984375 354.3046875 C-152.08626929 355.93736862 -156.33355479 357.56770969 -160.58398438 359.18994141 C-161.86613831 359.67933701 -161.86613831 359.67933701 -163.17419434 360.17861938 C-169.24767901 362.44535409 -175.85091312 363.31128814 -182.0625 361 C-187.63742187 356.17844595 -192.5935607 350.84661594 -197.39453125 345.265625 C-199.84105768 342.46683737 -202.35576721 339.73310183 -204.875 337 C-207.91406692 333.69988699 -210.93656514 330.39050176 -213.875 327 C-216.77585904 323.65499029 -219.75338591 320.38408003 -222.75 317.125 C-229.10408459 310.20953198 -235.44432792 303.29425161 -241.51513672 296.12695312 C-247.16690462 289.45857324 -253.01227092 283.01643645 -259.03564453 276.68115234 C-262.69442083 272.82745347 -266.2420816 268.90121906 -269.7253418 264.88818359 C-272.06178934 262.21390725 -274.46510123 259.60836102 -276.875 257 C-279.91468996 253.70047223 -282.93658059 250.39048393 -285.875 247 C-289.23822638 243.12182987 -292.70835671 239.34472189 -296.18310547 235.56689453 C-300.61723628 230.74415109 -305.0001824 225.8765888 -309.375 221 C-310.87471128 219.33307353 -312.37471321 217.66640851 -313.875 216 C-316.875 212.66666667 -319.875 209.33333333 -322.875 206 C-323.99261719 204.75863281 -323.99261719 204.75863281 -325.1328125 203.4921875 C-326.60792618 201.85260121 -328.08191652 200.21200345 -329.5546875 198.5703125 C-333.67598316 193.9796878 -337.82415232 189.41591412 -342 184.875 C-364.51796295 160.34678025 -364.51796295 160.34678025 -364.875 148.8125 C-364.92914063 148.08224609 -364.98328125 147.35199219 -365.0390625 146.59960938 C-365.15278748 142.01405588 -364.35346204 139.41280594 -361.39453125 135.86328125 C-357.48232522 131.85472763 -353.13499285 128.58753978 -348.5625 125.375 C-346.87086812 124.15837136 -345.18080212 122.93956297 -343.4921875 121.71875 C-342.63979492 121.10386719 -341.78740234 120.48898438 -340.90917969 119.85546875 C-336.93570256 116.94617914 -333.06080138 113.9156831 -329.1875 110.875 C-317.11213429 101.44314955 -317.11213429 101.44314955 -311.625 97.25 C-310.98151611 96.74839355 -310.33803223 96.24678711 -309.67504883 95.72998047 C-304.80802326 92.03580191 -300.75654752 90.03841206 -294.5 89.9375 C-283.60084419 91.77466831 -274.5596417 106.22758957 -268.125 114.25 C-263.24652271 120.3003535 -257.93235983 125.9028887 -252.60546875 131.5546875 C-249.6614525 134.68118062 -246.8039331 137.86882842 -244.00390625 141.125 C-242.03834911 143.38751181 -240.01826691 145.59690683 -238 147.8125 C-234.9841017 151.14665893 -232.11088124 154.54453501 -229.3125 158.0625 C-224.57715399 163.92530934 -219.4253013 169.36232295 -214.22241211 174.81079102 C-207.72787998 181.61920018 -201.60070633 188.71500042 -195.5 195.875 C-190.55010632 201.66972987 -185.50404739 207.36285226 -180.375 213 C-181.81315528 202.91084745 -184.12212686 193.05461678 -186.45831299 183.1434021 C-187.13494683 180.27026354 -187.80513165 177.39567928 -188.47412109 174.52075195 C-190.37552072 166.36970377 -192.29403165 158.22644122 -194.3671875 150.1171875 C-200.72836742 125.1884847 -200.72836742 125.1884847 -197.21484375 115.94921875 C-193.60729905 110.16642417 -188.74991986 107.42533508 -182.5703125 104.87890625 C-181.61485283 104.48048775 -181.61485283 104.48048775 -180.64009094 104.07402039 C-178.59770477 103.22592286 -176.54933633 102.39364523 -174.5 101.5625 C-173.0935948 100.98397322 -171.68742661 100.40486996 -170.28149414 99.82519531 C-138.3735839 86.71510169 -138.3735839 86.71510169 -129.66015625 88.984375 C-120.71349955 92.96066687 -115.58128945 104.8081128 -110.70019531 112.84423828 C-108.50574911 116.41405404 -106.22262434 119.92529187 -103.9375 123.4375 C-103.48012451 124.14197266 -103.02274902 124.84644531 -102.55151367 125.57226562 C-101.62345346 127.00140344 -100.69498616 128.43027697 -99.76611328 129.85888672 C-97.46377731 133.40249614 -95.16973899 136.95146825 -92.875 140.5 C-90.05683397 144.85686346 -87.23740941 149.21289788 -84.4140625 153.56640625 C-83.68219727 154.695625 -83.68219727 154.695625 -82.93554688 155.84765625 C-82.0128961 157.27117459 -81.08975961 158.69437831 -80.16601562 160.1171875 C-77.9895871 163.47624158 -75.83681537 166.8479861 -73.71826172 170.24389648 C-73.27682831 170.95118393 -72.8353949 171.65847137 -72.38058472 172.38719177 C-72.04874176 172.91941849 -71.7168988 173.4516452 -71.375 174 C-71.92732284 159.19137095 -73.07365157 144.51619855 -74.58984375 129.77734375 C-74.80831003 127.61329448 -75.02628114 125.44919518 -75.24378967 123.28504944 C-75.81190417 117.64540387 -76.38654516 112.00644304 -76.96270752 106.36761475 C-77.54353808 100.67190774 -78.11821613 94.97558049 -78.69335938 89.27929688 C-79.44325078 81.85730733 -80.19495684 74.43550914 -80.95086288 67.01412964 C-81.33302507 63.26075719 -81.71399517 59.50726413 -82.09493065 55.75376701 C-82.38036072 52.94729098 -82.66771156 50.14101508 -82.95503235 47.33473206 C-83.13774957 45.5369654 -83.32038558 43.73919049 -83.50292969 41.94140625 C-83.58677886 41.12779098 -83.67062803 40.3141757 -83.75701809 39.47590542 C-84.3439243 33.66861874 -84.7121418 27.90260758 -84.6875 22.0625 C-84.70361328 21.24072266 -84.71972656 20.41894531 -84.73632812 19.57226562 C-84.74008515 14.93234532 -84.56055555 11.64159297 -81.375 8 C-77.3638368 5.70545749 -73.95792942 4.54174532 -69.38671875 3.97265625 C-67.63814575 3.74678833 -67.63814575 3.74678833 -65.85424805 3.51635742 C-64.60297119 3.36658447 -63.35169434 3.21681152 -62.0625 3.0625 C-60.75901611 2.89919189 -59.45553223 2.73588379 -58.11254883 2.56762695 C-55.3244281 2.21849322 -52.53555477 1.87633423 -49.74609375 1.53808594 C-46.03748981 1.08577139 -42.33300995 0.60595611 -38.6290741 0.11701965 C-35.66078694 -0.27370044 -32.69133285 -0.65498903 -29.72158813 -1.03445435 C-28.29618654 -1.21801643 -26.87118322 -1.4047015 -25.44662476 -1.59469604 C-6.85332525 -4.06122978 -6.85332525 -4.06122978 0 0 Z " transform="translate(364.375,3)" style="fill: #5ECBF3;"/><path d="M0 0 C0.68626465 0.01812744 1.3725293 0.03625488 2.07958984 0.05493164 C8.64718107 0.28766454 15.18574924 0.97029601 21.71923828 1.65234375 C28.26807609 2.32535621 34.79773774 2.7315172 41.375 3 C42.29635742 3.03947754 43.21771484 3.07895508 44.16699219 3.11962891 C47.48845311 3.26016605 50.80967471 3.40036582 54.13232422 3.50976562 C69.31691628 4.02362661 69.31691628 4.02362661 73.9375 8.4375 C88.42608275 33.89455209 75.82457567 82.56818715 71.9375 109.8125 C71.75823975 111.07289093 71.57897949 112.33328186 71.39428711 113.63186646 C70.87426365 117.26348773 70.34550627 120.89370091 69.8125 124.5234375 C69.57497009 126.16866142 69.57497009 126.16866142 69.3326416 127.84712219 C68.53326219 133.19736144 67.56431802 138.27793927 65.9375 143.4375 C65.62281601 144.89104035 65.32901957 146.34936198 65.0625 147.8125 C63.99832204 153.32764449 62.71013815 158.78230886 61.39892578 164.24291992 C60.49254515 168.02598203 59.66316153 171.80231874 58.9375 175.625 C57.6161025 180.66282797 55.71031598 183.87325061 51.8125 187.3125 C44.83975665 190.04096479 36.58220763 188.30911951 29.30859375 187.55859375 C28.52613281 187.51863281 27.74367188 187.47867188 26.9375 187.4375 C26.6075 187.7675 26.2775 188.0975 25.9375 188.4375 C29.07803439 190.5311896 29.84715633 190.68391331 33.4296875 190.7109375 C34.29980469 190.7315625 35.16992188 190.7521875 36.06640625 190.7734375 C37.88922965 190.79936671 39.71217846 190.81766315 41.53515625 190.828125 C45.62759231 190.93693423 48.29795031 191.08303063 51.92578125 193.09375 C54.28026503 195.8368379 55.21829512 198.10650092 56.25 201.5625 C56.57613281 202.61695313 56.90226562 203.67140625 57.23828125 204.7578125 C57.9375 207.4375 57.9375 207.4375 57.9375 209.4375 C58.60136719 209.60765625 59.26523437 209.7778125 59.94921875 209.953125 C65.08019378 211.36133421 69.07687572 212.57687572 72.9375 216.4375 C74.23413485 219.03076971 74.03234348 221.34784857 74.07641602 224.19873047 C74.06318205 232.63371293 74.06318205 232.63371293 78 239.8125 C81.59782974 244.23591869 81.57422577 248.5069609 81.625 254 C81.65315796 255.2063208 81.65315796 255.2063208 81.68188477 256.43701172 C81.5970375 260.90685753 81.02262581 263.70769446 78.43359375 267.390625 C75.21781637 271.9997719 75.26338953 276.1369051 75.3125 281.625 C75.3125 292.57223684 75.3125 292.57223684 71.9375 296.4375 C69.08984375 298.45703125 69.08984375 298.45703125 65.875 300.25 C64.81152344 300.85457031 63.74804688 301.45914062 62.65234375 302.08203125 C59.9375 303.4375 59.9375 303.4375 57.9375 303.4375 C57.710625 304.2625 57.48375 305.0875 57.25 305.9375 C55.36216423 310.97172871 52.75708443 315.61791557 48.9375 319.4375 C47.01733398 319.5534668 47.01733398 319.5534668 44.68359375 319.38671875 C33.31999487 318.3718945 33.31999487 318.3718945 23.3125 322.875 C22.16171404 324.03752868 21.0296811 325.21974728 19.9375 326.4375 C17.10175377 327.85537312 15.08509782 327.71070226 11.9375 327.4375 C9.3046875 325.94140625 9.3046875 325.94140625 6.8125 324 C0.33136628 319.00286419 -4.82693199 319.33688979 -12.77539062 319.828125 C-16.95277972 319.94569444 -18.54128009 319.84391066 -21.953125 317.18359375 C-23.71121083 314.89482646 -25.15267251 312.85058977 -26.375 310.25 C-26.70113281 309.57582031 -27.02726562 308.90164063 -27.36328125 308.20703125 C-28.0625 306.4375 -28.0625 306.4375 -28.0625 304.4375 C-28.93261719 304.29054688 -28.93261719 304.29054688 -29.8203125 304.140625 C-35.02277898 303.14477333 -38.98926846 302.02582302 -43.0625 298.4375 C-46.10539126 293.71577219 -46.19255491 289.82597817 -46.375 284.25 C-46.61160163 278.7651441 -47.35660657 275.23472895 -50.125 270.5 C-54.12652826 263.32050257 -54.32669834 256.37340312 -53.0625 248.4375 C-51.35855293 244.31083173 -49.238601 240.613601 -46.0625 237.4375 C-45.9422512 236.08162963 -45.88305512 234.72020286 -45.8515625 233.359375 C-45.82320313 232.52792969 -45.79484375 231.69648438 -45.765625 230.83984375 C-45.71400782 229.08744056 -45.66960243 227.33480841 -45.6328125 225.58203125 C-45.45608635 220.80306163 -45.2949383 217.23210148 -42.0625 213.4375 C-40.16015625 212.29296875 -40.16015625 212.29296875 -38.125 211.625 C-37.45597656 211.39167969 -36.78695313 211.15835938 -36.09765625 210.91796875 C-34.0625 210.4375 -34.0625 210.4375 -30.0625 210.4375 C-29.9696875 209.261875 -29.9696875 209.261875 -29.875 208.0625 C-28.54395655 202.12399846 -26.5949567 196.19015688 -21.44921875 192.62890625 C-16.46297444 190.87480646 -11.90579734 191.36074788 -6.6953125 191.73046875 C-2.393933 191.89702048 0.1142135 191.74918928 3.5 188.9296875 C4.304375 188.10726562 5.10875 187.28484375 5.9375 186.4375 C4.019375 186.251875 4.019375 186.251875 2.0625 186.0625 C-3.04894221 185.50178535 -8.03856474 184.51780341 -13.0625 183.4375 C-13.0625 182.7775 -13.0625 182.1175 -13.0625 181.4375 C-13.69695038 181.19905869 -14.33140076 180.96061737 -14.9850769 180.71495056 C-17.0625 179.4375 -17.0625 179.4375 -17.88430786 177.44044495 C-18.97337822 171.06173524 -19.32980183 164.93064358 -19.2421875 158.46484375 C-19.23460419 157.36583237 -19.22702087 156.26682098 -19.21920776 155.13450623 C-19.18395715 151.23516584 -19.12723065 147.33643539 -19.0625 143.4375 C-19.0502388 142.68788246 -19.0379776 141.93826492 -19.02534485 141.1659317 C-18.83366454 129.66552194 -18.58521061 118.16659637 -18.31787109 106.66772461 C-18.23084754 102.91974913 -18.14750323 99.17172373 -18.06787109 95.42358398 C-17.64276504 75.44281717 -17.11145589 55.46899631 -16.24093246 35.50205803 C-16.1593715 33.62379625 -16.08030462 31.74542427 -16.00391006 29.86694527 C-15.89651574 27.26360904 -15.77788638 24.66103147 -15.65576172 22.05834961 C-15.62590557 21.30065466 -15.59604942 20.54295971 -15.56528854 19.76230431 C-14.90542933 6.70568485 -14.90542933 6.70568485 -10.37890625 2.46484375 C-6.50489338 0.09663093 -4.50562147 -0.14687094 0 0 Z " transform="translate(450.0625,11.5625)" style="fill: #5ECBF4;"/><path d="M0 0 C2.421875 1.375 2.421875 1.375 4.75 3 C5.91789062 3.804375 5.91789062 3.804375 7.109375 4.625 C9 6 9 6 10 7 C11.4440081 7.02616973 12.88930585 6.98811451 14.33203125 6.921875 C15.21310547 6.89609375 16.09417969 6.8703125 17.00195312 6.84375 C18.86453464 6.7816208 20.72666083 6.7036808 22.58789062 6.609375 C29.3379824 6.45205312 29.3379824 6.45205312 32.5390625 9.1015625 C34.14241492 12.28254512 34.86105398 15.13781121 35.5625 18.625 C36.40649282 22.08074412 36.40649282 22.08074412 38 25 C40.87224824 26.55724302 43.21470018 27.07875253 46.44140625 27.5078125 C49.34189026 28.0657682 50.25180949 28.6653558 52 31 C52.99014582 33.97043746 53.08740102 36.393677 53.13916016 39.49584961 C53.30612352 46.84982669 54.08851607 51.07955181 58.7421875 56.9921875 C60.62970718 60.00518475 60.51418705 62.28112689 59.80981445 65.69750977 C58.90132643 68.28055185 57.73965987 69.62809478 55.91015625 71.64453125 C52.1570031 76.46768691 52.6129633 80.26855587 53.1875 86.125 C53.64918588 95.07279633 53.64918588 95.07279633 51.23046875 98.52734375 C48.8433454 100.08313061 46.68246174 101.05252498 44 102 C39.23600687 103.82437905 37.25484834 105.52423412 35.08203125 110.19140625 C34.80746094 110.82949219 34.53289062 111.46757812 34.25 112.125 C31.20945946 118.89527027 31.20945946 118.89527027 29 120 C26.87479572 119.90159153 24.74966233 119.80046834 22.62548828 119.68188477 C15.07357742 119.33011448 9.82445758 119.16416315 3.625 124.0625 C2.83351563 124.81660156 2.04203125 125.57070313 1.2265625 126.34765625 C-1 128 -1 128 -3.53515625 127.96875 C-6.33974301 126.86647184 -7.85776502 125.47739498 -10.0625 123.4375 C-16.046059 118.94302093 -21.89892996 119.52482708 -29.04321289 120.08374023 C-35.44462446 120.4826376 -35.44462446 120.4826376 -38.53515625 117.796875 C-39.89234733 115.20554484 -40.55765881 113.22759778 -41.0625 110.375 C-41.65810398 107.98398597 -41.65810398 107.98398597 -43 106 C-45.75810925 104.75907008 -48.36411001 104.1896319 -51.328125 103.609375 C-54.67889277 102.84516481 -56.62440324 101.45478332 -59 99 C-60.26767183 96.46465634 -60.06427297 94.27634361 -60.08837891 91.48950195 C-60.23392759 82.58871502 -61.99691951 76.64935219 -66.6015625 69.05078125 C-68.27281817 65.40482963 -68.24288076 63.78086416 -67 60 C-65.40625 58.18359375 -65.40625 58.18359375 -63.5 56.4375 C-58.69083434 50.80084632 -59.27985203 44.3320539 -59.43945312 37.27514648 C-59.45931921 34.77405117 -59.44822008 32.46128889 -59 30 C-55.16230188 26.44164905 -51.0156371 26.42505399 -46 26 C-45.76216797 25.05640625 -45.76216797 25.05640625 -45.51953125 24.09375 C-45.28621094 23.2378125 -45.05289062 22.381875 -44.8125 21.5 C-44.59207031 20.6646875 -44.37164062 19.829375 -44.14453125 18.96875 C-41.00624855 10.82849454 -41.00624855 10.82849454 -38 8 C-34.49062867 7.15893292 -31.19156061 7.51339038 -27.625 7.875 C-21.00854432 8.70127063 -21.00854432 8.70127063 -14.86865234 6.7409668 C-13.12965735 5.24075985 -11.57055856 3.67278587 -10 2 C-6.13926382 -0.84959099 -4.58542321 -1.30529009 0 0 Z " transform="translate(468,199)" style="fill: #5FCCF3;"/><path d="M0 0 C5.23877032 5.98716608 6.16315226 13.94605487 7.23828125 21.62890625 C7.37318466 22.55066147 7.50808807 23.47241669 7.64707947 24.42210388 C8.0880457 27.46746917 8.51423031 30.51462728 8.9375 33.5625 C9.08707153 34.62621826 9.23664307 35.68993652 9.39074707 36.78588867 C16.81697685 89.82365665 21.84515758 142.92154477 21.9375 196.5 C21.94314972 198.29809113 21.94314972 198.29809113 21.94891357 200.13250732 C22.06037468 269.66146375 22.06037468 269.66146375 8.625 291 C4.19979491 295.21613702 -0.071179 297.43421914 -5.74609375 299.59375 C-6.54547867 299.90775757 -7.34486359 300.22176514 -8.16847229 300.54528809 C-9.8565653 301.20596092 -11.54679972 301.86118545 -13.23901367 302.51123047 C-15.77797581 303.48673532 -18.31027815 304.47801645 -20.84179688 305.47265625 C-52.39978487 317.8051812 -52.39978487 317.8051812 -59.375 315 C-65.23971053 311.13104425 -69.18372355 305.59231828 -73.1875 299.9375 C-74.42341536 298.22579389 -75.66039737 296.51485744 -76.8984375 294.8046875 C-77.49495117 293.97678711 -78.09146484 293.14888672 -78.70605469 292.29589844 C-80.85469955 289.34009734 -83.07105306 286.44864406 -85.3125 283.5625 C-89.66905914 277.95218486 -93.93432108 272.27589484 -98.19140625 266.58984375 C-99.23028992 265.20339661 -99.23028992 265.20339661 -100.29016113 263.78894043 C-101.98551994 261.5262688 -103.6804554 259.26328142 -105.375 257 C-105.38086624 257.7014061 -105.38673248 258.40281219 -105.39277649 259.12547302 C-105.45127906 265.81622706 -105.52366943 272.50668063 -105.61071491 279.19712734 C-105.65497508 282.63472987 -105.69432075 286.07222585 -105.72143555 289.51000977 C-106.05546995 330.51375014 -106.05546995 330.51375014 -114.70561218 340.54270935 C-116.74351773 342.32169723 -118.64074084 343.10025441 -121.16601562 344.06884766 C-122.1371228 344.44578766 -123.10822998 344.82272766 -124.10876465 345.21109009 C-125.15568481 345.60807098 -126.20260498 346.00505188 -127.28125 346.4140625 C-128.35749634 346.82917084 -129.43374268 347.24427917 -130.54260254 347.67196655 C-133.98390483 348.99714923 -137.42937601 350.31110073 -140.875 351.625 C-143.19689038 352.51751201 -145.51850847 353.41073274 -147.83984375 354.3046875 C-152.08626929 355.93736862 -156.33355479 357.56770969 -160.58398438 359.18994141 C-161.86613831 359.67933701 -161.86613831 359.67933701 -163.17419434 360.17861938 C-169.24767901 362.44535409 -175.85091312 363.31128814 -182.0625 361 C-187.63742187 356.17844595 -192.5935607 350.84661594 -197.39453125 345.265625 C-199.84105768 342.46683737 -202.35576721 339.73310183 -204.875 337 C-207.91406692 333.69988699 -210.93656514 330.39050176 -213.875 327 C-216.77585904 323.65499029 -219.75338591 320.38408003 -222.75 317.125 C-229.10408459 310.20953198 -235.44432792 303.29425161 -241.51513672 296.12695312 C-247.16690462 289.45857324 -253.01227092 283.01643645 -259.03564453 276.68115234 C-262.69442083 272.82745347 -266.2420816 268.90121906 -269.7253418 264.88818359 C-272.06178934 262.21390725 -274.46510123 259.60836102 -276.875 257 C-279.91468996 253.70047223 -282.93658059 250.39048393 -285.875 247 C-289.23822638 243.12182987 -292.70835671 239.34472189 -296.18310547 235.56689453 C-300.61723628 230.74415109 -305.0001824 225.8765888 -309.375 221 C-310.87471128 219.33307353 -312.37471321 217.66640851 -313.875 216 C-316.875 212.66666667 -319.875 209.33333333 -322.875 206 C-323.99261719 204.75863281 -323.99261719 204.75863281 -325.1328125 203.4921875 C-326.60792618 201.85260121 -328.08191652 200.21200345 -329.5546875 198.5703125 C-333.67598316 193.9796878 -337.82415232 189.41591412 -342 184.875 C-364.51796295 160.34678025 -364.51796295 160.34678025 -364.875 148.8125 C-364.92914063 148.08224609 -364.98328125 147.35199219 -365.0390625 146.59960938 C-365.15278748 142.01405588 -364.35346204 139.41280594 -361.39453125 135.86328125 C-357.48232522 131.85472763 -353.13499285 128.58753978 -348.5625 125.375 C-346.87086812 124.15837136 -345.18080212 122.93956297 -343.4921875 121.71875 C-342.63979492 121.10386719 -341.78740234 120.48898438 -340.90917969 119.85546875 C-336.93570256 116.94617914 -333.06080138 113.9156831 -329.1875 110.875 C-317.11213429 101.44314955 -317.11213429 101.44314955 -311.625 97.25 C-310.98151611 96.74839355 -310.33803223 96.24678711 -309.67504883 95.72998047 C-304.80802326 92.03580191 -300.75654752 90.03841206 -294.5 89.9375 C-283.60084419 91.77466831 -274.5596417 106.22758957 -268.125 114.25 C-263.24652271 120.3003535 -257.93235983 125.9028887 -252.60546875 131.5546875 C-249.6614525 134.68118062 -246.8039331 137.86882842 -244.00390625 141.125 C-242.03834911 143.38751181 -240.01826691 145.59690683 -238 147.8125 C-234.9841017 151.14665893 -232.11088124 154.54453501 -229.3125 158.0625 C-224.57715399 163.92530934 -219.4253013 169.36232295 -214.22241211 174.81079102 C-207.72787998 181.61920018 -201.60070633 188.71500042 -195.5 195.875 C-190.55010632 201.66972987 -185.50404739 207.36285226 -180.375 213 C-181.81315528 202.91084745 -184.12212686 193.05461678 -186.45831299 183.1434021 C-187.13494683 180.27026354 -187.80513165 177.39567928 -188.47412109 174.52075195 C-190.37552072 166.36970377 -192.29403165 158.22644122 -194.3671875 150.1171875 C-200.72836742 125.1884847 -200.72836742 125.1884847 -197.21484375 115.94921875 C-193.60729905 110.16642417 -188.74991986 107.42533508 -182.5703125 104.87890625 C-181.61485283 104.48048775 -181.61485283 104.48048775 -180.64009094 104.07402039 C-178.59770477 103.22592286 -176.54933633 102.39364523 -174.5 101.5625 C-173.0935948 100.98397322 -171.68742661 100.40486996 -170.28149414 99.82519531 C-138.3735839 86.71510169 -138.3735839 86.71510169 -129.66015625 88.984375 C-120.71349955 92.96066687 -115.58128945 104.8081128 -110.70019531 112.84423828 C-108.50574911 116.41405404 -106.22262434 119.92529187 -103.9375 123.4375 C-103.48012451 124.14197266 -103.02274902 124.84644531 -102.55151367 125.57226562 C-101.62345346 127.00140344 -100.69498616 128.43027697 -99.76611328 129.85888672 C-97.46377731 133.40249614 -95.16973899 136.95146825 -92.875 140.5 C-90.05683397 144.85686346 -87.23740941 149.21289788 -84.4140625 153.56640625 C-83.68219727 154.695625 -83.68219727 154.695625 -82.93554688 155.84765625 C-82.0128961 157.27117459 -81.08975961 158.69437831 -80.16601562 160.1171875 C-77.9895871 163.47624158 -75.83681537 166.8479861 -73.71826172 170.24389648 C-73.27682831 170.95118393 -72.8353949 171.65847137 -72.38058472 172.38719177 C-72.04874176 172.91941849 -71.7168988 173.4516452 -71.375 174 C-71.92732284 159.19137095 -73.07365157 144.51619855 -74.58984375 129.77734375 C-74.80831003 127.61329448 -75.02628114 125.44919518 -75.24378967 123.28504944 C-75.81190417 117.64540387 -76.38654516 112.00644304 -76.96270752 106.36761475 C-77.54353808 100.67190774 -78.11821613 94.97558049 -78.69335938 89.27929688 C-79.44325078 81.85730733 -80.19495684 74.43550914 -80.95086288 67.01412964 C-81.33302507 63.26075719 -81.71399517 59.50726413 -82.09493065 55.75376701 C-82.38036072 52.94729098 -82.66771156 50.14101508 -82.95503235 47.33473206 C-83.13774957 45.5369654 -83.32038558 43.73919049 -83.50292969 41.94140625 C-83.58677886 41.12779098 -83.67062803 40.3141757 -83.75701809 39.47590542 C-84.3439243 33.66861874 -84.7121418 27.90260758 -84.6875 22.0625 C-84.70361328 21.24072266 -84.71972656 20.41894531 -84.73632812 19.57226562 C-84.74008515 14.93234532 -84.56055555 11.64159297 -81.375 8 C-77.3638368 5.70545749 -73.95792942 4.54174532 -69.38671875 3.97265625 C-67.63814575 3.74678833 -67.63814575 3.74678833 -65.85424805 3.51635742 C-64.60297119 3.36658447 -63.35169434 3.21681152 -62.0625 3.0625 C-60.75901611 2.89919189 -59.45553223 2.73588379 -58.11254883 2.56762695 C-55.3244281 2.21849322 -52.53555477 1.87633423 -49.74609375 1.53808594 C-46.03748981 1.08577139 -42.33300995 0.60595611 -38.6290741 0.11701965 C-35.66078694 -0.27370044 -32.69133285 -0.65498903 -29.72158813 -1.03445435 C-28.29618654 -1.21801643 -26.87118322 -1.4047015 -25.44662476 -1.59469604 C-6.85332525 -4.06122978 -6.85332525 -4.06122978 0 0 Z M-41 3.9375 C-44.1687343 4.35704777 -47.33774684 4.77440496 -50.50692749 5.19056702 C-52.466255 5.44857462 -54.4252842 5.70886256 -56.38394165 5.97190857 C-61.6565874 6.67405428 -66.91382113 7.25993803 -72.21788025 7.67022705 C-75.77977464 8.21475705 -77.8272945 9.51010306 -80.375 12 C-81.22609911 15.05161601 -81.22609911 15.05161601 -80.9375 18.6875 C-80.91526367 19.40824707 -80.89302734 20.12899414 -80.87011719 20.87158203 C-80.03709528 40.98946557 -77.53401572 61.08923242 -75.18624878 81.07647705 C-73.69565392 93.78655475 -72.40006873 106.51049817 -71.1875 119.25 C-71.10291534 120.13146698 -71.01833069 121.01293396 -70.93118286 121.92111206 C-69.46317626 137.26662413 -68.19646501 152.50484693 -68.3125 167.9375 C-68.31701172 169.10990234 -68.32152344 170.28230469 -68.32617188 171.49023438 C-68.33775003 174.32688113 -68.35405029 177.16340972 -68.375 180 C-71.79514059 179.40492141 -72.22854256 179.19918212 -74.42578125 176.2109375 C-75.19080793 174.93891392 -75.94374146 173.65957504 -76.6875 172.375 C-77.57427128 170.90080585 -78.46375835 169.42824308 -79.35546875 167.95703125 C-80.07935791 166.75747803 -80.07935791 166.75747803 -80.81787109 165.53369141 C-83.61578033 160.98105704 -86.56540306 156.52774302 -89.5 152.0625 C-94.90988899 143.8057 -100.25552725 135.51078018 -105.5625 127.1875 C-108.16286022 123.12255102 -110.7679352 119.06065144 -113.375 115 C-113.96007324 114.08621582 -114.54514648 113.17243164 -115.14794922 112.23095703 C-116.754677 109.73021159 -118.37473599 107.23872593 -120 104.75 C-120.46043701 104.02965576 -120.92087402 103.30931152 -121.39526367 102.56713867 C-126.06309773 95.35949885 -126.06309773 95.35949885 -133.46923828 91.50488281 C-141.50716768 90.95943418 -148.6441275 94.42755545 -155.875 97.5 C-157.20910499 98.05397977 -158.54366316 98.60686941 -159.87866211 99.15869141 C-162.51105532 100.25115594 -165.13816497 101.35505757 -167.76123047 102.46972656 C-170.88523439 103.79260567 -174.01895247 105.08591443 -177.16015625 106.3671875 C-178.7535446 107.03421627 -180.34608342 107.7032805 -181.9375 108.375 C-182.63746094 108.65923828 -183.33742187 108.94347656 -184.05859375 109.23632812 C-188.50330315 111.17754157 -192.51985124 113.36608243 -194.375 118 C-195.18631692 127.47377905 -192.12610574 137.19419429 -189.79547119 146.30895996 C-189.17397903 148.74039753 -188.56547351 151.17476714 -187.96044922 153.61035156 C-187.14777438 156.88147657 -186.33172785 160.15172587 -185.51318359 163.42138672 C-174.66142814 206.9178492 -174.66142814 206.9178492 -175.375 220 C-180.59319018 218.54511426 -183.27407798 215.28617499 -186.75 211.375 C-187.3265332 210.73981445 -187.90306641 210.10462891 -188.49707031 209.45019531 C-190.13319601 207.64223484 -191.75695987 205.82414636 -193.375 204 C-194.06335938 203.22398437 -194.75171875 202.44796875 -195.4609375 201.6484375 C-196.54625574 200.41025753 -197.62720871 199.16823348 -198.703125 197.921875 C-200.73258073 195.58894926 -202.802647 193.29488755 -204.875 191 C-207.52613994 188.06321535 -210.15790171 185.11397458 -212.75 182.125 C-215.22488428 179.2777373 -217.75948351 176.49360308 -220.32397461 173.72680664 C-224.25677485 169.48159084 -228.07234422 165.21149382 -231.6875 160.6875 C-236.54054079 154.65398983 -241.83766962 149.07590425 -247.14453125 143.4453125 C-250.0885475 140.31881938 -252.9460669 137.13117158 -255.74609375 133.875 C-257.71165089 131.61248819 -259.73173309 129.40309317 -261.75 127.1875 C-264.78473184 123.83198275 -267.6791891 120.41161818 -270.5 116.875 C-274.5676773 111.84639716 -278.8952311 107.09842663 -283.3125 102.375 C-283.97588379 101.66327637 -284.63926758 100.95155273 -285.32275391 100.21826172 C-286.25933838 99.22463623 -286.25933838 99.22463623 -287.21484375 98.2109375 C-287.77550537 97.61587402 -288.33616699 97.02081055 -288.91381836 96.40771484 C-291.72088907 93.703359 -294.31576573 93.79078306 -298.109375 93.57421875 C-301.4303179 94.19832698 -303.72165289 96.01855709 -306.375 98 C-307.07093262 98.51844482 -307.76686523 99.03688965 -308.48388672 99.57104492 C-310.97894776 101.45056704 -313.45930956 103.34829316 -315.9375 105.25 C-317.8111926 106.68229863 -319.68489067 108.11459008 -321.55859375 109.546875 C-323.49742287 111.03121469 -325.43622491 112.51558975 -327.375 114 C-331.08173994 116.83542442 -334.79015718 119.66863671 -338.5 122.5 C-339.8144812 123.50426025 -339.8144812 123.50426025 -341.15551758 124.52880859 C-346.5729939 128.65803627 -352.0317992 132.70586862 -357.609375 136.6171875 C-360.46897801 138.85678808 -360.41170118 140.23121744 -361 143.9375 C-360.86615873 150.95301321 -355.93028514 155.16147709 -351.375 160 C-350.21823156 161.25082282 -349.06200909 162.50215072 -347.90625 163.75390625 C-345.48085551 166.36968117 -343.04204472 168.97206358 -340.59375 171.56640625 C-337.72038437 174.61771719 -334.94419037 177.73682947 -332.2109375 180.9140625 C-329.65008065 183.82363177 -327.01086456 186.65844078 -324.375 189.5 C-320.5886166 193.58294578 -316.85732698 197.6977001 -313.21484375 201.91015625 C-310.80829879 204.64370519 -308.34198556 207.32115657 -305.875 210 C-302.85573504 213.27855105 -299.85297862 216.56580957 -296.9375 219.9375 C-293.82535876 223.52958591 -290.60627914 227.01551992 -287.375 230.5 C-283.58868312 234.58301022 -279.85732951 238.69769717 -276.21484375 242.91015625 C-273.80829879 245.64370519 -271.34198556 248.32115657 -268.875 251 C-265.85573504 254.27855105 -262.85297862 257.56580957 -259.9375 260.9375 C-257.37784366 263.89614353 -254.73918962 266.76869882 -252.07080078 269.62866211 C-246.95141926 275.11644178 -242.09700294 280.71942968 -237.39453125 286.57421875 C-235.09062782 289.34157664 -232.6235608 291.84186123 -230.0390625 294.34375 C-227.68625312 296.68551333 -225.5502333 299.19457261 -223.3828125 301.70703125 C-220.96427388 304.46905882 -218.48608624 307.17397712 -216 309.875 C-211.08684234 315.2161535 -206.22120545 320.59795736 -201.375 326 C-199.13164253 328.49348792 -196.88745108 330.98619933 -194.640625 333.4765625 C-193.08052566 335.21419039 -191.52890735 336.959458 -189.984375 338.7109375 C-189.20578125 339.59007812 -188.4271875 340.46921875 -187.625 341.375 C-186.92890625 342.16648437 -186.2328125 342.95796875 -185.515625 343.7734375 C-180.99985928 348.67264028 -180.99985928 348.67264028 -174.72583008 350.28515625 C-170.09871439 350.17668718 -166.29182997 348.84841825 -162.02734375 347.1484375 C-161.25298477 346.85192291 -160.47862579 346.55540833 -159.68080139 346.24990845 C-157.21969585 345.30400851 -154.76623327 344.33983978 -152.3125 343.375 C-150.69382309 342.75009959 -149.07468511 342.12639214 -147.45507812 341.50390625 C-144.27492355 340.27913739 -141.10187525 339.03809166 -137.93310547 337.78417969 C-134.97754054 336.61674839 -132.01140363 335.49416057 -129.02392578 334.41113281 C-128.3435878 334.15764069 -127.66324982 333.90414856 -126.96229553 333.64297485 C-125.13846685 332.96414594 -123.30881581 332.30101712 -121.47875977 331.63916016 C-116.11644237 328.80720869 -113.33012525 324.73001377 -111.375 319 C-109.35751184 308.67713147 -109.10007375 298.36588847 -109.1796875 287.87890625 C-109.1834313 286.39819025 -109.18627178 284.91747172 -109.18826294 283.43675232 C-109.19579208 279.5948873 -109.21534419 275.75318065 -109.2376709 271.91137695 C-109.25836452 267.96893454 -109.26731421 264.02646579 -109.27734375 260.08398438 C-109.29860368 252.38925178 -109.33260471 244.69464832 -109.375 237 C-94.54109834 255.97743993 -94.54109834 255.97743993 -88.5 264.3125 C-83.3738095 271.31782513 -78.18565233 278.2730258 -72.9375 285.1875 C-72.2873291 286.04835205 -71.6371582 286.9092041 -70.96728516 287.79614258 C-69.72033696 289.43402329 -68.45963647 291.0615438 -67.18408203 292.67724609 C-65.98790972 294.21306032 -64.83608144 295.78456665 -63.73388672 297.38916016 C-60.65446177 301.57310036 -60.65446177 301.57310036 -55.99008179 303.46421814 C-48.78035548 303.42296992 -43.09150227 301.92385517 -36.44921875 299.203125 C-35.45799515 298.81308289 -34.46677155 298.42304077 -33.44551086 298.0211792 C-31.36732239 297.19933946 -29.29264192 296.36857756 -27.22143555 295.52929688 C-24.06087666 294.24934258 -20.89027904 292.997522 -17.71679688 291.75 C-15.68946196 290.94432245 -13.66274649 290.13708406 -11.63671875 289.328125 C-10.22564095 288.76850067 -10.22564095 288.76850067 -8.78605652 288.1975708 C-1.26170618 285.13619989 4.60274338 282.43721411 8.625 275 C9.68376021 272.10671908 10.45719099 269.1788116 11.1875 266.1875 C11.39802002 265.34493652 11.60854004 264.50237305 11.82543945 263.63427734 C12.44655551 261.0939771 13.04176377 258.54924108 13.625 256 C13.78387695 255.31534668 13.94275391 254.63069336 14.10644531 253.92529297 C28.91075254 187.90743984 16.56352539 111.71384 7.26611328 45.60546875 C6.71717071 41.69252021 6.1972571 37.77623364 5.68357849 33.85852051 C5.27787229 30.79639849 4.85417455 27.73696242 4.42550659 24.67797852 C4.22790085 23.24579344 4.03688994 21.8126802 3.85305786 20.37866211 C2.67168646 10.01723024 2.67168646 10.01723024 -3.375 2 C-13.05743559 -2.84121779 -30.81440698 2.56720238 -41 3.9375 Z " transform="translate(364.375,3)" style="fill: #04B2F2;"/><path d="M0 0 C0.68626465 0.01812744 1.3725293 0.03625488 2.07958984 0.05493164 C8.64718107 0.28766454 15.18574924 0.97029601 21.71923828 1.65234375 C28.26807609 2.32535621 34.79773774 2.7315172 41.375 3 C42.29635742 3.03947754 43.21771484 3.07895508 44.16699219 3.11962891 C47.48845311 3.26016605 50.80967471 3.40036582 54.13232422 3.50976562 C69.31691628 4.02362661 69.31691628 4.02362661 73.9375 8.4375 C88.42608275 33.89455209 75.82457567 82.56818715 71.9375 109.8125 C71.75823975 111.07289093 71.57897949 112.33328186 71.39428711 113.63186646 C70.87426365 117.26348773 70.34550627 120.89370091 69.8125 124.5234375 C69.57497009 126.16866142 69.57497009 126.16866142 69.3326416 127.84712219 C68.53326219 133.19736144 67.56431802 138.27793927 65.9375 143.4375 C65.62281601 144.89104035 65.32901957 146.34936198 65.0625 147.8125 C63.99832204 153.32764449 62.71013815 158.78230886 61.39892578 164.24291992 C60.49254515 168.02598203 59.66316153 171.80231874 58.9375 175.625 C57.6161025 180.66282797 55.71031598 183.87325061 51.8125 187.3125 C44.83975665 190.04096479 36.58220763 188.30911951 29.30859375 187.55859375 C28.52613281 187.51863281 27.74367188 187.47867188 26.9375 187.4375 C26.6075 187.7675 26.2775 188.0975 25.9375 188.4375 C29.07803439 190.5311896 29.84715633 190.68391331 33.4296875 190.7109375 C34.29980469 190.7315625 35.16992188 190.7521875 36.06640625 190.7734375 C37.88922965 190.79936671 39.71217846 190.81766315 41.53515625 190.828125 C45.62759231 190.93693423 48.29795031 191.08303063 51.92578125 193.09375 C54.28026503 195.8368379 55.21829512 198.10650092 56.25 201.5625 C56.57613281 202.61695313 56.90226562 203.67140625 57.23828125 204.7578125 C57.9375 207.4375 57.9375 207.4375 57.9375 209.4375 C58.60136719 209.60765625 59.26523437 209.7778125 59.94921875 209.953125 C65.08019378 211.36133421 69.07687572 212.57687572 72.9375 216.4375 C74.23413485 219.03076971 74.03234348 221.34784857 74.07641602 224.19873047 C74.06318205 232.63371293 74.06318205 232.63371293 78 239.8125 C81.59782974 244.23591869 81.57422577 248.5069609 81.625 254 C81.65315796 255.2063208 81.65315796 255.2063208 81.68188477 256.43701172 C81.5970375 260.90685753 81.02262581 263.70769446 78.43359375 267.390625 C75.21781637 271.9997719 75.26338953 276.1369051 75.3125 281.625 C75.3125 292.57223684 75.3125 292.57223684 71.9375 296.4375 C69.08984375 298.45703125 69.08984375 298.45703125 65.875 300.25 C64.81152344 300.85457031 63.74804688 301.45914062 62.65234375 302.08203125 C59.9375 303.4375 59.9375 303.4375 57.9375 303.4375 C57.710625 304.2625 57.48375 305.0875 57.25 305.9375 C55.36216423 310.97172871 52.75708443 315.61791557 48.9375 319.4375 C47.01733398 319.5534668 47.01733398 319.5534668 44.68359375 319.38671875 C33.31999487 318.3718945 33.31999487 318.3718945 23.3125 322.875 C22.16171404 324.03752868 21.0296811 325.21974728 19.9375 326.4375 C17.10175377 327.85537312 15.08509782 327.71070226 11.9375 327.4375 C9.3046875 325.94140625 9.3046875 325.94140625 6.8125 324 C0.33136628 319.00286419 -4.82693199 319.33688979 -12.77539062 319.828125 C-16.95277972 319.94569444 -18.54128009 319.84391066 -21.953125 317.18359375 C-23.71121083 314.89482646 -25.15267251 312.85058977 -26.375 310.25 C-26.70113281 309.57582031 -27.02726562 308.90164063 -27.36328125 308.20703125 C-28.0625 306.4375 -28.0625 306.4375 -28.0625 304.4375 C-28.93261719 304.29054688 -28.93261719 304.29054688 -29.8203125 304.140625 C-35.02277898 303.14477333 -38.98926846 302.02582302 -43.0625 298.4375 C-46.10539126 293.71577219 -46.19255491 289.82597817 -46.375 284.25 C-46.61160163 278.7651441 -47.35660657 275.23472895 -50.125 270.5 C-54.12652826 263.32050257 -54.32669834 256.37340312 -53.0625 248.4375 C-51.35855293 244.31083173 -49.238601 240.613601 -46.0625 237.4375 C-45.9422512 236.08162963 -45.88305512 234.72020286 -45.8515625 233.359375 C-45.82320313 232.52792969 -45.79484375 231.69648438 -45.765625 230.83984375 C-45.71400782 229.08744056 -45.66960243 227.33480841 -45.6328125 225.58203125 C-45.45608635 220.80306163 -45.2949383 217.23210148 -42.0625 213.4375 C-40.16015625 212.29296875 -40.16015625 212.29296875 -38.125 211.625 C-37.45597656 211.39167969 -36.78695313 211.15835938 -36.09765625 210.91796875 C-34.0625 210.4375 -34.0625 210.4375 -30.0625 210.4375 C-29.9696875 209.261875 -29.9696875 209.261875 -29.875 208.0625 C-28.54395655 202.12399846 -26.5949567 196.19015688 -21.44921875 192.62890625 C-16.46297444 190.87480646 -11.90579734 191.36074788 -6.6953125 191.73046875 C-2.393933 191.89702048 0.1142135 191.74918928 3.5 188.9296875 C4.304375 188.10726562 5.10875 187.28484375 5.9375 186.4375 C4.019375 186.251875 4.019375 186.251875 2.0625 186.0625 C-3.04894221 185.50178535 -8.03856474 184.51780341 -13.0625 183.4375 C-13.0625 182.7775 -13.0625 182.1175 -13.0625 181.4375 C-13.69695038 181.19905869 -14.33140076 180.96061737 -14.9850769 180.71495056 C-17.0625 179.4375 -17.0625 179.4375 -17.88430786 177.44044495 C-18.97337822 171.06173524 -19.32980183 164.93064358 -19.2421875 158.46484375 C-19.23460419 157.36583237 -19.22702087 156.26682098 -19.21920776 155.13450623 C-19.18395715 151.23516584 -19.12723065 147.33643539 -19.0625 143.4375 C-19.0502388 142.68788246 -19.0379776 141.93826492 -19.02534485 141.1659317 C-18.83366454 129.66552194 -18.58521061 118.16659637 -18.31787109 106.66772461 C-18.23084754 102.91974913 -18.14750323 99.17172373 -18.06787109 95.42358398 C-17.64276504 75.44281717 -17.11145589 55.46899631 -16.24093246 35.50205803 C-16.1593715 33.62379625 -16.08030462 31.74542427 -16.00391006 29.86694527 C-15.89651574 27.26360904 -15.77788638 24.66103147 -15.65576172 22.05834961 C-15.62590557 21.30065466 -15.59604942 20.54295971 -15.56528854 19.76230431 C-14.90542933 6.70568485 -14.90542933 6.70568485 -10.37890625 2.46484375 C-6.50489338 0.09663093 -4.50562147 -0.14687094 0 0 Z M-10.0625 7.4375 C-10.63718062 9.52060743 -10.63718062 9.52060743 -10.75341797 11.86523438 C-10.82827423 12.76101196 -10.90313049 13.65678955 -10.98025513 14.57971191 C-11.04606781 15.55371948 -11.11188049 16.52772705 -11.1796875 17.53125 C-11.25782684 18.55585327 -11.33596619 19.58045654 -11.41647339 20.6361084 C-12.27415226 32.39111162 -12.78852282 44.15910757 -13.1875 55.9375 C-13.22852844 57.12732483 -13.26955688 58.31714966 -13.31182861 59.54302979 C-14.07909305 82.56586429 -14.33960626 105.59170229 -14.42494965 128.62619019 C-14.43749452 131.31132609 -14.45730692 133.99632065 -14.47906494 136.68139648 C-14.5122407 140.92760867 -14.52469892 145.17339167 -14.52101898 149.41972733 C-14.52261791 150.99646758 -14.53091054 152.57321674 -14.54624176 154.14988327 C-14.56578035 156.31768685 -14.56029679 158.48402904 -14.54833984 160.65185547 C-14.55118988 161.87145966 -14.55403992 163.09106384 -14.55697632 164.34762573 C-13.9632868 168.05746158 -13.05487263 169.22753501 -10.0625 171.4375 C-7.31671361 171.98281415 -4.90118571 172.29296997 -2.1328125 172.44921875 C-1.35345337 172.50754883 -0.57409424 172.56587891 0.22888184 172.62597656 C2.75585429 172.81029897 5.28368782 172.96813254 7.8125 173.125 C9.53996917 173.24517301 11.26734631 173.36667631 12.99462891 173.48950195 C25.2975432 174.34595682 37.6109955 175.03584985 49.9375 175.4375 C50.5975 174.1175 51.2575 172.7975 51.9375 171.4375 C52.5975 171.4375 53.2575 171.4375 53.9375 171.4375 C60.31320121 143.5157277 60.31320121 143.5157277 65.9375 115.4375 C66.07494629 114.69467773 66.21239258 113.95185547 66.35400391 113.18652344 C68.50347977 101.35051413 69.60487399 89.52827263 70.46484375 77.53515625 C70.73314632 73.86265803 71.05457473 70.21330881 71.50390625 66.55859375 C72.8284696 55.74569228 73.15165247 45.00842945 73.1875 34.125 C73.19526459 33.03566162 73.19526459 33.03566162 73.20318604 31.92431641 C73.21500102 29.82825495 73.2116856 27.73278628 73.203125 25.63671875 C73.19974121 23.80886841 73.19974121 23.80886841 73.19628906 21.9440918 C72.84745735 17.21742209 72.3734737 12.8734737 68.9375 9.4375 C64.95088288 8.57441178 60.97180937 8.23045642 56.90722656 7.95678711 C55.73871155 7.87677963 54.57019653 7.79677216 53.36627197 7.71434021 C51.49113922 7.59083946 51.49113922 7.59083946 49.578125 7.46484375 C48.27856873 7.37747452 46.97901245 7.29010529 45.64007568 7.2000885 C42.89331507 7.01578891 40.14642065 6.83367125 37.39941406 6.65307617 C33.90498473 6.4231475 30.4109635 6.18757254 26.91702652 5.95029354 C23.55427078 5.72277377 20.19118574 5.50031004 16.828125 5.27734375 C15.58613342 5.19298569 14.34414185 5.10862762 13.06451416 5.02171326 C9.68958425 4.80210771 6.31523742 4.60811678 2.9375 4.4375 C1.95422729 4.38570587 0.97095459 4.33391174 -0.04211426 4.2805481 C-0.93346069 4.25314545 -1.82480713 4.2257428 -2.74316406 4.19750977 C-3.51114319 4.17028336 -4.27912231 4.14305695 -5.07037354 4.11500549 C-7.69359653 4.53966478 -8.51575062 5.29729432 -10.0625 7.4375 Z M7.8125 189.8125 C6.94367188 190.43898437 6.07484375 191.06546875 5.1796875 191.7109375 C2.89750742 193.39160029 2.89750742 193.39160029 0.9375 195.4375 C-1.13793945 195.53759766 -1.13793945 195.53759766 -3.67578125 195.3515625 C-4.59423828 195.30902344 -5.51269531 195.26648438 -6.45898438 195.22265625 C-8.39274372 195.11644844 -10.32535337 194.98647173 -12.25585938 194.83203125 C-15.0517682 194.72652526 -17.35095296 194.73537524 -20.0625 195.4375 C-23.83629224 198.98135943 -25.57597425 204.01487609 -26.875 208.9375 C-27.10832031 209.7934375 -27.34164063 210.649375 -27.58203125 211.53125 C-27.81986328 212.47484375 -27.81986328 212.47484375 -28.0625 213.4375 C-29.98307292 213.60026042 -31.90364583 213.76302083 -33.82421875 213.92578125 C-36.99957562 214.65173544 -38.63247579 215.18435797 -41.0625 217.4375 C-41.67607822 220.80681192 -41.51470706 224.1487197 -41.4375 227.5625 C-41.52354981 239.14108875 -41.52354981 239.14108875 -45.5625 243.875 C-46.1915625 244.45121094 -46.820625 245.02742188 -47.46875 245.62109375 C-49.74599352 248.21648159 -49.98643415 250.00608493 -50.0625 253.4375 C-48.68907257 256.58775277 -48.68907257 256.58775277 -46.6875 259.75 C-43.12825425 266.04765603 -42.28305812 271.47100609 -42.41455078 278.66333008 C-42.43361365 282.15888017 -42.17619636 284.24312449 -40.39453125 287.2890625 C-37.80355228 289.67606155 -35.77178986 290.65804254 -32.4375 291.75 C-31.47585938 292.07613281 -30.51421875 292.40226562 -29.5234375 292.73828125 C-27.16824847 293.52860307 -27.16824847 293.52860307 -25.0625 293.4375 C-24.80726563 294.32501953 -24.80726563 294.32501953 -24.546875 295.23046875 C-24.18335938 296.41576172 -24.18335938 296.41576172 -23.8125 297.625 C-23.58046875 298.40230469 -23.3484375 299.17960937 -23.109375 299.98046875 C-21.73990877 303.19462643 -20.71675452 305.10408943 -18.0625 307.4375 C-14.84841589 307.85877099 -11.72011757 307.51780062 -8.5 307.25 C-1.61624796 306.9131671 2.70691361 307.00312572 8.3125 311.5 C9.08335937 312.25410156 9.85421875 313.00820313 10.6484375 313.78515625 C12.88035572 315.74068263 12.88035572 315.74068263 15.99609375 315.40625 C19.20865059 314.34819675 20.35471602 313.31272358 22.625 310.875 C28.02867264 306.28837752 33.57153788 306.94788918 40.28588867 307.43334961 C45.12448685 307.81233081 45.12448685 307.81233081 49.390625 305.78125 C51.04855424 303.26923599 51.93447753 300.97886002 52.875 298.125 C55.60865233 291.65420271 60.01404942 289.58437575 66.07421875 286.77734375 C68.99191227 285.61026154 68.99191227 285.61026154 70.9375 283.4375 C71.11626031 281.43221872 71.11626031 281.43221872 70.921875 279.1484375 C70.88835937 278.28863281 70.85484375 277.42882812 70.8203125 276.54296875 C70.7328675 274.7452024 70.62911468 272.94814336 70.5078125 271.15234375 C70.30703677 265.0104317 71.36844227 261.83879968 75.51171875 257.25610352 C77.61407598 254.57451806 78.12689977 252.05159218 78.3203125 248.6953125 C77.84760776 245.90731922 76.80382663 244.58741017 75.0625 242.375 C71.38345259 237.59646715 71.24561742 232.91839233 71.25244141 227.10913086 C71.22113117 222.68736926 70.75546695 219.90576701 67.9375 216.4375 C66.07806904 215.25919036 66.07806904 215.25919036 64 214.6875 C62.99646484 214.35492188 62.99646484 214.35492188 61.97265625 214.015625 C59.95335918 213.36170017 59.95335918 213.36170017 57.84375 213.3203125 C55.9375 212.4375 55.9375 212.4375 54.55859375 209.1640625 C54.14750861 207.80176093 53.75361444 206.4341806 53.375 205.0625 C51.85183234 199.03424567 51.85183234 199.03424567 47.9375 194.4375 C45.84342685 194.12174066 45.84342685 194.12174066 43.55078125 194.35546875 C42.69419922 194.39220703 41.83761719 194.42894531 40.95507812 194.46679688 C39.17042834 194.5711699 37.38646238 194.68809242 35.60351562 194.81835938 C28.50326655 195.08879455 25.14639615 193.09092182 19.9375 188.4375 C14.86802549 185.05785033 12.33167686 186.50743036 7.8125 189.8125 Z " transform="translate(450.0625,11.5625)" style="fill: #07B3F1;"/><path d="M0 0 C2.421875 1.375 2.421875 1.375 4.75 3 C5.91789062 3.804375 5.91789062 3.804375 7.109375 4.625 C9 6 9 6 10 7 C11.4440081 7.02616973 12.88930585 6.98811451 14.33203125 6.921875 C15.21310547 6.89609375 16.09417969 6.8703125 17.00195312 6.84375 C18.86453464 6.7816208 20.72666083 6.7036808 22.58789062 6.609375 C29.3379824 6.45205312 29.3379824 6.45205312 32.5390625 9.1015625 C34.14241492 12.28254512 34.86105398 15.13781121 35.5625 18.625 C36.40649282 22.08074412 36.40649282 22.08074412 38 25 C40.87224824 26.55724302 43.21470018 27.07875253 46.44140625 27.5078125 C49.34189026 28.0657682 50.25180949 28.6653558 52 31 C52.99014582 33.97043746 53.08740102 36.393677 53.13916016 39.49584961 C53.30612352 46.84982669 54.08851607 51.07955181 58.7421875 56.9921875 C60.62970718 60.00518475 60.51418705 62.28112689 59.80981445 65.69750977 C58.90132643 68.28055185 57.73965987 69.62809478 55.91015625 71.64453125 C52.1570031 76.46768691 52.6129633 80.26855587 53.1875 86.125 C53.64918588 95.07279633 53.64918588 95.07279633 51.23046875 98.52734375 C48.8433454 100.08313061 46.68246174 101.05252498 44 102 C39.23600687 103.82437905 37.25484834 105.52423412 35.08203125 110.19140625 C34.80746094 110.82949219 34.53289062 111.46757812 34.25 112.125 C31.20945946 118.89527027 31.20945946 118.89527027 29 120 C26.87479572 119.90159153 24.74966233 119.80046834 22.62548828 119.68188477 C15.07357742 119.33011448 9.82445758 119.16416315 3.625 124.0625 C2.83351563 124.81660156 2.04203125 125.57070313 1.2265625 126.34765625 C-1 128 -1 128 -3.53515625 127.96875 C-6.33974301 126.86647184 -7.85776502 125.47739498 -10.0625 123.4375 C-16.046059 118.94302093 -21.89892996 119.52482708 -29.04321289 120.08374023 C-35.44462446 120.4826376 -35.44462446 120.4826376 -38.53515625 117.796875 C-39.89234733 115.20554484 -40.55765881 113.22759778 -41.0625 110.375 C-41.65810398 107.98398597 -41.65810398 107.98398597 -43 106 C-45.75810925 104.75907008 -48.36411001 104.1896319 -51.328125 103.609375 C-54.67889277 102.84516481 -56.62440324 101.45478332 -59 99 C-60.26767183 96.46465634 -60.06427297 94.27634361 -60.08837891 91.48950195 C-60.23392759 82.58871502 -61.99691951 76.64935219 -66.6015625 69.05078125 C-68.27281817 65.40482963 -68.24288076 63.78086416 -67 60 C-65.40625 58.18359375 -65.40625 58.18359375 -63.5 56.4375 C-58.69083434 50.80084632 -59.27985203 44.3320539 -59.43945312 37.27514648 C-59.45931921 34.77405117 -59.44822008 32.46128889 -59 30 C-55.16230188 26.44164905 -51.0156371 26.42505399 -46 26 C-45.76216797 25.05640625 -45.76216797 25.05640625 -45.51953125 24.09375 C-45.28621094 23.2378125 -45.05289062 22.381875 -44.8125 21.5 C-44.59207031 20.6646875 -44.37164062 19.829375 -44.14453125 18.96875 C-41.00624855 10.82849454 -41.00624855 10.82849454 -38 8 C-34.49062867 7.15893292 -31.19156061 7.51339038 -27.625 7.875 C-21.00854432 8.70127063 -21.00854432 8.70127063 -14.86865234 6.7409668 C-13.12965735 5.24075985 -11.57055856 3.67278587 -10 2 C-6.13926382 -0.84959099 -4.58542321 -1.30529009 0 0 Z M-6.98046875 11.75 C-7.70878906 12.4925 -8.43710937 13.235 -9.1875 14 C-12.42571501 16.96139986 -13.48317787 17.92616827 -17.9375 18.5625 C-19.29622435 18.41153063 -20.6507861 18.22033034 -22 18 C-23.83294037 17.82906582 -25.66629093 17.66248055 -27.5 17.5 C-29.00043567 17.33730216 -30.50060922 17.17206124 -32 17 C-34.08135307 22.29798964 -35.71291613 27.45563871 -37 33 C-43.435 34.485 -43.435 34.485 -50 36 C-49.91878906 37.03898437 -49.83757812 38.07796875 -49.75390625 39.1484375 C-49.07408218 51.81871559 -49.07408218 51.81871559 -53.5625 57.6875 C-54.22378906 58.41324219 -54.88507813 59.13898438 -55.56640625 59.88671875 C-57.26111385 61.9282726 -57.26111385 61.9282726 -56.87109375 64.55859375 C-56.00992568 66.97218139 -55.09514854 68.39961256 -53.5 70.375 C-50.68071575 74.49005557 -50.85559095 77.71045686 -50.9375 82.625 C-50.96282646 86.53175501 -50.96282646 86.53175501 -50 90 C-47.11104954 92.13453943 -44.33094027 93.15772554 -40.96875 94.39453125 C-36.26944627 96.93586524 -35.31040856 100.70595711 -33.671875 105.5859375 C-33.45015625 106.38257813 -33.2284375 107.17921875 -33 108 C-32.43603516 107.97381592 -31.87207031 107.94763184 -31.29101562 107.9206543 C-28.69430275 107.81564799 -26.0980378 107.75135627 -23.5 107.6875 C-22.613125 107.64560547 -21.72625 107.60371094 -20.8125 107.56054688 C-14.90860389 107.45201937 -11.40116333 108.35750855 -6.64331055 111.91113281 C-4.95497599 113.23983695 -4.95497599 113.23983695 -2.3125 113.0625 C0.13679715 112.10816389 0.13679715 112.10816389 1.96875 109.94921875 C6.47769923 107.04977846 10.5759845 107.56712639 15.8125 107.75 C16.79154297 107.76804687 17.77058594 107.78609375 18.77929688 107.8046875 C21.18720771 107.85167113 23.59309335 107.91734306 26 108 C26.36609375 107.11957031 26.7321875 106.23914063 27.109375 105.33203125 C30.14825765 98.81290443 32.42162545 94.52706106 39.4375 91.6875 C41.27747827 91.08019429 43.12827148 90.50097167 45 90 C44.7834375 88.80503906 44.7834375 88.80503906 44.5625 87.5859375 C44.376875 86.52632813 44.19125 85.46671875 44 84.375 C43.814375 83.33085937 43.62875 82.28671875 43.4375 81.2109375 C42.32703863 73.06094421 42.32703863 73.06094421 44.53125 69.5859375 C45.1809375 68.85632813 45.830625 68.12671875 46.5 67.375 C49.70809359 63.84338138 49.70809359 63.84338138 50 59 C48.71655092 57.3216144 48.71655092 57.3216144 47.0625 55.6875 C42.47065228 50.01521752 43.01812366 42.95948522 43 36 C41.96875 35.71125 40.9375 35.4225 39.875 35.125 C38.92101318 34.83955322 38.92101318 34.83955322 37.94775391 34.54833984 C36.2241458 34.06310246 34.46773036 33.69791359 32.7109375 33.3515625 C30 32 30 32 28.5390625 28.5234375 C28.20810995 27.14667489 27.90417438 25.76318822 27.625 24.375 C27.46128906 23.66859375 27.29757812 22.9621875 27.12890625 22.234375 C26.7292695 20.49477974 26.361492 18.74792012 26 17 C24.73285156 17.08121094 23.46570313 17.16242188 22.16015625 17.24609375 C6.83577321 17.92717744 6.83577321 17.92717744 1.5 13.5 C0.8709375 12.8503125 0.241875 12.200625 -0.40625 11.53125 C-2.94966734 9.08757452 -4.44408137 9.50877407 -6.98046875 11.75 Z " transform="translate(468,199)" style="fill: #ABAFB1;"/><path d="M0 0 C2.8125 1.625 2.8125 1.625 4.3671875 3.19921875 C8.88210849 5.83172061 14.34466185 5.0607658 19.45898438 5.06445312 C23.54236048 5.15236545 26.17440939 5.27171161 29.796875 7.27734375 C32.153753 10.02246716 33.09242817 12.29109683 34.125 15.75 C34.45113281 16.80445313 34.77726562 17.85890625 35.11328125 18.9453125 C35.8125 21.625 35.8125 21.625 35.8125 23.625 C36.47636719 23.79515625 37.14023437 23.9653125 37.82421875 24.140625 C42.95519378 25.54883421 46.95187572 26.76437572 50.8125 30.625 C52.10913485 33.21826971 51.90734348 35.53534857 51.95141602 38.38623047 C51.93818205 46.82121293 51.93818205 46.82121293 55.875 54 C59.47282974 58.42341869 59.44922577 62.6944609 59.5 68.1875 C59.51877197 68.99171387 59.53754395 69.79592773 59.55688477 70.62451172 C59.4720375 75.09435753 58.89762581 77.89519446 56.30859375 81.578125 C53.09281637 86.1872719 53.13838953 90.3244051 53.1875 95.8125 C53.1875 106.75973684 53.1875 106.75973684 49.8125 110.625 C46.96484375 112.64453125 46.96484375 112.64453125 43.75 114.4375 C42.68652344 115.04207031 41.62304688 115.64664063 40.52734375 116.26953125 C37.8125 117.625 37.8125 117.625 35.8125 117.625 C35.585625 118.45 35.35875 119.275 35.125 120.125 C33.23716423 125.15922871 30.63208443 129.80541557 26.8125 133.625 C24.89233398 133.7409668 24.89233398 133.7409668 22.55859375 133.57421875 C11.19499487 132.5593945 11.19499487 132.5593945 1.1875 137.0625 C0.03671404 138.22502868 -1.0953189 139.40724728 -2.1875 140.625 C-5.02324623 142.04287312 -7.03990218 141.89820226 -10.1875 141.625 C-12.8203125 140.12890625 -12.8203125 140.12890625 -15.3125 138.1875 C-21.79363372 133.19036419 -26.95193199 133.52438979 -34.90039062 134.015625 C-39.07777972 134.13319444 -40.66628009 134.03141066 -44.078125 131.37109375 C-45.83621083 129.08232646 -47.27767251 127.03808977 -48.5 124.4375 C-48.98919922 123.42623047 -48.98919922 123.42623047 -49.48828125 122.39453125 C-50.1875 120.625 -50.1875 120.625 -50.1875 118.625 C-50.76757812 118.52703125 -51.34765625 118.4290625 -51.9453125 118.328125 C-57.14777898 117.33227333 -61.11426846 116.21332302 -65.1875 112.625 C-68.23039126 107.90327219 -68.31755491 104.01347817 -68.5 98.4375 C-68.73660163 92.9526441 -69.48160657 89.42222895 -72.25 84.6875 C-76.25152826 77.50800257 -76.45169834 70.56090312 -75.1875 62.625 C-73.48355293 58.49833173 -71.363601 54.801101 -68.1875 51.625 C-68.0672512 50.26912963 -68.00805512 48.90770286 -67.9765625 47.546875 C-67.94820313 46.71542969 -67.91984375 45.88398438 -67.890625 45.02734375 C-67.83900782 43.27494056 -67.79460243 41.52230841 -67.7578125 39.76953125 C-67.58108635 34.99056163 -67.4199383 31.41960148 -64.1875 27.625 C-62.28515625 26.48046875 -62.28515625 26.48046875 -60.25 25.8125 C-59.58097656 25.57917969 -58.91195313 25.34585938 -58.22265625 25.10546875 C-56.1875 24.625 -56.1875 24.625 -52.1875 24.625 C-52.125625 23.84125 -52.06375 23.0575 -52 22.25 C-50.66776579 16.30618584 -48.71779327 10.374711 -43.56640625 6.8125 C-39.26720043 5.30156524 -35.80253879 5.53379508 -31.3125 5.8125 C-23.8303022 6.12622514 -23.8303022 6.12622514 -17.3125 2.75 C-16.77882813 2.21632812 -16.24515625 1.68265625 -15.6953125 1.1328125 C-10.8903647 -3.6721353 -5.87842613 -2.53579166 0 0 Z M-14.3125 4 C-15.18132812 4.62648437 -16.05015625 5.25296875 -16.9453125 5.8984375 C-19.22749258 7.57910029 -19.22749258 7.57910029 -21.1875 9.625 C-23.26293945 9.72509766 -23.26293945 9.72509766 -25.80078125 9.5390625 C-26.71923828 9.49652344 -27.63769531 9.45398438 -28.58398438 9.41015625 C-30.51774372 9.30394844 -32.45035337 9.17397173 -34.38085938 9.01953125 C-37.1767682 8.91402526 -39.47595296 8.92287524 -42.1875 9.625 C-45.96129224 13.16885943 -47.70097425 18.20237609 -49 23.125 C-49.23332031 23.9809375 -49.46664063 24.836875 -49.70703125 25.71875 C-49.94486328 26.66234375 -49.94486328 26.66234375 -50.1875 27.625 C-52.10807292 27.78776042 -54.02864583 27.95052083 -55.94921875 28.11328125 C-59.12457562 28.83923544 -60.75747579 29.37185797 -63.1875 31.625 C-63.80107822 34.99431192 -63.63970706 38.3362197 -63.5625 41.75 C-63.64854981 53.32858875 -63.64854981 53.32858875 -67.6875 58.0625 C-68.3165625 58.63871094 -68.945625 59.21492188 -69.59375 59.80859375 C-71.87099352 62.40398159 -72.11143415 64.19358493 -72.1875 67.625 C-70.81407257 70.77525277 -70.81407257 70.77525277 -68.8125 73.9375 C-65.25325425 80.23515603 -64.40805812 85.65850609 -64.53955078 92.85083008 C-64.55861365 96.34638017 -64.30119636 98.43062449 -62.51953125 101.4765625 C-59.92855228 103.86356155 -57.89678986 104.84554254 -54.5625 105.9375 C-53.60085938 106.26363281 -52.63921875 106.58976562 -51.6484375 106.92578125 C-49.29324847 107.71610307 -49.29324847 107.71610307 -47.1875 107.625 C-46.93226563 108.51251953 -46.93226563 108.51251953 -46.671875 109.41796875 C-46.30835938 110.60326172 -46.30835938 110.60326172 -45.9375 111.8125 C-45.70546875 112.58980469 -45.4734375 113.36710937 -45.234375 114.16796875 C-43.86490877 117.38212643 -42.84175452 119.29158943 -40.1875 121.625 C-36.97341589 122.04627099 -33.84511757 121.70530062 -30.625 121.4375 C-23.74124796 121.1006671 -19.41808639 121.19062572 -13.8125 125.6875 C-13.04164063 126.44160156 -12.27078125 127.19570313 -11.4765625 127.97265625 C-9.24464428 129.92818263 -9.24464428 129.92818263 -6.12890625 129.59375 C-2.91634941 128.53569675 -1.77028398 127.50022358 0.5 125.0625 C5.90367264 120.47587752 11.44653788 121.13538918 18.16088867 121.62084961 C22.99948685 121.99983081 22.99948685 121.99983081 27.265625 119.96875 C28.92355424 117.45673599 29.80947753 115.16636002 30.75 112.3125 C33.48365233 105.84170271 37.88904942 103.77187575 43.94921875 100.96484375 C46.86691227 99.79776154 46.86691227 99.79776154 48.8125 97.625 C48.99126031 95.61971872 48.99126031 95.61971872 48.796875 93.3359375 C48.76335937 92.47613281 48.72984375 91.61632812 48.6953125 90.73046875 C48.6078675 88.9327024 48.50411468 87.13564336 48.3828125 85.33984375 C48.18203677 79.1979317 49.24344227 76.02629968 53.38671875 71.44360352 C55.48907598 68.76201806 56.00189977 66.23909218 56.1953125 62.8828125 C55.72260776 60.09481922 54.67882663 58.77491017 52.9375 56.5625 C49.25845259 51.78396715 49.12061742 47.10589233 49.12744141 41.29663086 C49.09613117 36.87486926 48.63046695 34.09326701 45.8125 30.625 C43.95306904 29.44669036 43.95306904 29.44669036 41.875 28.875 C40.87146484 28.54242188 40.87146484 28.54242188 39.84765625 28.203125 C37.82835918 27.54920017 37.82835918 27.54920017 35.71875 27.5078125 C33.8125 26.625 33.8125 26.625 32.43359375 23.3515625 C32.02250861 21.98926093 31.62861444 20.6216806 31.25 19.25 C29.72683234 13.22174567 29.72683234 13.22174567 25.8125 8.625 C23.71842685 8.30924066 23.71842685 8.30924066 21.42578125 8.54296875 C20.56919922 8.57970703 19.71261719 8.61644531 18.83007812 8.65429688 C17.04542834 8.7586699 15.26146238 8.87559242 13.47851562 9.00585938 C6.37826655 9.27629455 3.02139615 7.27842182 -2.1875 2.625 C-7.25697451 -0.75464967 -9.79332314 0.69493036 -14.3125 4 Z " transform="translate(472.1875,197.375)" style="fill: #07B4F3;"/><path d="M0 0 C2 2 2 2 3.3671875 4.33203125 C5.06230302 7.10180135 6.92543905 9.30267138 9.125 11.6875 C9.92164063 12.55761719 10.71828125 13.42773438 11.5390625 14.32421875 C12.75722656 15.64873047 12.75722656 15.64873047 14 17 C15.50213771 18.66474024 17.00217898 20.33137483 18.5 22 C19.24507812 22.82757813 19.99015625 23.65515625 20.7578125 24.5078125 C22.23292618 26.14739879 23.70691652 27.78799655 25.1796875 29.4296875 C29.30097768 34.0203061 33.44873788 38.58447107 37.625 43.125 C41.18253099 46.99367822 44.68289575 50.90334125 48.125 54.875 C50.54550075 57.61823418 53.02200642 60.30884568 55.5 63 C58.53888018 66.30028923 61.56156045 69.60949283 64.5 73 C67.86322638 76.87817013 71.33335671 80.65527811 74.80810547 84.43310547 C79.24223628 89.25584891 83.6251824 94.1234112 88 99 C89.49971128 100.66692647 90.99971321 102.33359149 92.5 104 C110.5 124 110.5 124 112.7421875 126.4921875 C114.26708244 128.18592894 115.79315402 129.87861169 117.3203125 131.5703125 C120.69912708 135.31564256 124.06895965 139.06518207 127.375 142.875 C130.78479153 146.78994583 134.29339963 150.61177396 137.80761719 154.43261719 C142.24197003 159.25546911 146.62502901 164.12324023 151 169 C152.49971128 170.66692647 153.99971321 172.33359149 155.5 174 C158.5 177.33333333 161.5 180.66666667 164.5 184 C165.60601562 185.22783203 165.60601562 185.22783203 166.734375 186.48046875 C168.28931788 188.20967247 169.84124589 189.94159058 171.390625 191.67578125 C178.94462201 201.26381145 178.94462201 201.26381145 189.73120117 205.22241211 C193.98582195 205.16125516 197.34234915 204.04272559 201.30078125 202.44140625 C202.7048156 201.88580559 204.10929529 201.33132932 205.51416016 200.77783203 C206.61005463 200.33978241 206.61005463 200.33978241 207.72808838 199.8928833 C210.82279236 198.67663462 213.94398262 197.5393753 217.06906128 196.40390015 C220.29808518 195.23013686 223.51911567 194.03517435 226.74047852 192.84057617 C228.38974799 192.23191132 230.04084143 191.62816893 231.69360352 191.02905273 C234.12752495 190.14552711 236.55433352 189.24449608 238.98046875 188.33984375 C239.71379929 188.07823959 240.44712982 187.81663544 241.2026825 187.54710388 C247.09248337 185.31904613 250.76179879 182.43054312 253.6875 176.6875 C255.93025442 170.0994089 256.28973804 162.88536304 257 156 C257.33 156 257.66 156 258 156 C258.35119237 163.47909685 257.97748556 170.56534247 256.75 177.9375 C256.58600708 179.00085571 256.58600708 179.00085571 256.41870117 180.08569336 C255.31701204 186.20900165 252.67200567 190.90998816 248 195 C245.79919434 196.0753479 245.79919434 196.0753479 243.20898438 197.06884766 C242.2378772 197.44578766 241.26677002 197.82272766 240.26623535 198.21109009 C239.21931519 198.60807098 238.17239502 199.00505188 237.09375 199.4140625 C236.01750366 199.82917084 234.94125732 200.24427917 233.83239746 200.67196655 C230.39109517 201.99714923 226.94562399 203.31110073 223.5 204.625 C221.17810962 205.51751201 218.85649153 206.41073274 216.53515625 207.3046875 C212.28873071 208.93736862 208.04144521 210.56770969 203.79101562 212.18994141 C202.50886169 212.67933701 202.50886169 212.67933701 201.20080566 213.17861938 C195.12732099 215.44535409 188.52408688 216.31128814 182.3125 214 C176.73757813 209.17844595 171.7814393 203.84661594 166.98046875 198.265625 C164.53394232 195.46683737 162.01923279 192.73310183 159.5 190 C156.46093308 186.69988699 153.43843486 183.39050176 150.5 180 C147.59914096 176.65499029 144.62161409 173.38408003 141.625 170.125 C135.27091541 163.20953198 128.93067208 156.29425161 122.85986328 149.12695312 C117.20809538 142.45857324 111.36272908 136.01643645 105.33935547 129.68115234 C101.68057917 125.82745347 98.1329184 121.90121906 94.6496582 117.88818359 C92.31321066 115.21390725 89.90989877 112.60836102 87.5 110 C84.46031004 106.70047223 81.43841941 103.39048393 78.5 100 C75.13677362 96.12182987 71.66664329 92.34472189 68.19189453 88.56689453 C63.75776372 83.74415109 59.3748176 78.8765888 55 74 C53.50028872 72.33307353 52.00028679 70.66640851 50.5 69 C47.5 65.66666667 44.5 62.33333333 41.5 59 C40.75492188 58.17242187 40.00984375 57.34484375 39.2421875 56.4921875 C37.76707382 54.85260121 36.29308348 53.21200345 34.8203125 51.5703125 C30.69901684 46.9796878 26.55084768 42.41591412 22.375 37.875 C-0.17291115 13.31415847 -0.17291115 13.31415847 -0.0625 4.8125 C-0.05347656 3.91144531 -0.04445312 3.01039063 -0.03515625 2.08203125 C-0.02355469 1.39496094 -0.01195312 0.70789063 0 0 Z " transform="translate(0,150)" style="fill: #136381;"/><path d="M0 0 C-0.33 0.99 -0.66 1.98 -1 3 C-3.44140625 4.17578125 -3.44140625 4.17578125 -6.5625 5.3125 C-17.14187343 9.52918976 -23.37210267 15.4697848 -28.875 25.375 C-31.50597992 33.85260197 -30.06906444 40.37587023 -26.41796875 48.36328125 C-22.86300569 54.97374975 -17.00994119 58.66335294 -10 61 C-2.02958111 61.82127627 4.84046787 60.62671382 12 57 C15.00333267 54.66663334 15.00333267 54.66663334 17 52 C17.5775 51.29875 18.155 50.5975 18.75 49.875 C22.07808651 44.88287024 21.54321875 38.75216565 21 33 C19.5371797 28.65701537 17.03202064 25.26801161 13 23 C7.03651796 21.19559878 1.06594548 20.93013538 -4.5 23.8125 C-6.96064325 25.96556284 -8.78373586 27.60692191 -9.30078125 30.9375 C-9.30464844 31.618125 -9.30851562 32.29875 -9.3125 33 C-9.32925781 33.680625 -9.34601563 34.36125 -9.36328125 35.0625 C-8.88091083 37.63514225 -8.12363982 38.4891285 -6 40 C-3.71669899 40.36146457 -3.71669899 40.36146457 -1.3125 40.1875 C-0.50425781 40.16042969 0.30398438 40.13335937 1.13671875 40.10546875 C2.05904297 40.05326172 2.05904297 40.05326172 3 40 C2.95875 39.071875 2.9175 38.14375 2.875 37.1875 C3 34 3 34 5 31 C7.4375 30.5625 7.4375 30.5625 10 31 C11.875 32.5625 11.875 32.5625 13 35 C12.82577978 39.79105596 11.89395415 43.1758463 9 47 C4.24978645 51.2751922 0.59948133 52.36883387 -5.65234375 52.27734375 C-10.89118266 51.65844598 -14.10920925 49.12520936 -17.375 45 C-20.32339922 39.55680145 -20.78105795 34.11379844 -20 28 C-17.33453151 20.52951658 -12.31440077 15.20736784 -5.3125 11.625 C3.94246423 9.87878033 11.04855547 10.53390148 19.36328125 15.1640625 C25.46012717 19.40927373 29.44569695 25.73363326 31 33 C31.98483223 42.09601994 30.59673717 50.6620082 25.3125 58.25 C18.02888921 67.06139257 9.203847 70.88743773 -2.08203125 72.41796875 C-10.95316765 72.84815492 -19.24133086 70.08167459 -26.375 64.75 C-35.37760607 55.3186984 -39.39032419 44.58708195 -39.21484375 31.58203125 C-38.45918515 22.50038884 -33.89827764 14.46011098 -27.3125 8.3125 C-18.49097234 1.13677974 -11.3608631 -0.8013148 0 0 Z " transform="translate(468,225)" style="fill: #F8FDFE;"/><path d="M0 0 C2.77280907 1.11877581 4.37753735 2.50068457 6.59375 4.49609375 C13.88262184 9.92941437 22.75598924 9.05871113 31.46875 8.99609375 C33.68135202 13.99718051 35.25199026 18.66107029 36.46875 23.99609375 C37.31179688 24.20105469 38.15484375 24.40601563 39.0234375 24.6171875 C40.11914062 24.88660156 41.21484375 25.15601563 42.34375 25.43359375 C43.43429687 25.70042969 44.52484375 25.96726563 45.6484375 26.2421875 C48.46875 26.99609375 48.46875 26.99609375 50.46875 27.99609375 C50.47261719 29.8059375 50.47261719 29.8059375 50.4765625 31.65234375 C50.35399554 43.03572238 50.35399554 43.03572238 56.09375 52.390625 C57.98935346 54.60395745 58.39773411 56.08888089 58.46875 58.99609375 C56.78125 61.00390625 56.78125 61.00390625 54.46875 63.12109375 C50.51677591 67.61135397 50.10048635 70.61203049 50.45703125 76.33740234 C50.63023504 78.05554514 50.83040965 79.77120158 51.05859375 81.48291016 C51.33400906 83.6947276 51.57732844 85.76936018 51.46875 87.99609375 C49.13584519 90.739417 46.58984845 91.3203041 43.21875 92.30859375 C36.26488013 95.18009225 33.60519684 102.60355359 30.46875 108.99609375 C29.879729 108.95943604 29.29070801 108.92277832 28.68383789 108.88500977 C15.49090613 107.56874373 15.49090613 107.56874373 3.90625 112.55859375 C3.00712891 113.55052734 3.00712891 113.55052734 2.08984375 114.5625 C0.46875 115.99609375 0.46875 115.99609375 -1.52734375 115.90234375 C-3.79037564 114.87890632 -5.18456387 113.58856882 -7.03125 111.93359375 C-12.75458589 107.84824962 -18.89493087 108.64143359 -25.61132812 109.13061523 C-27.9959601 109.26322072 -30.16942051 109.35565498 -32.53125 108.99609375 C-35.06339583 106.21266627 -35.68418998 103.66152591 -36.40625 100.05859375 C-37.53181069 96.76897162 -38.47544854 96.02902457 -41.54296875 94.21875 C-43.87283672 93.17043757 -46.22481123 92.16967801 -48.59765625 91.22265625 C-51.53125 89.99609375 -51.53125 89.99609375 -53.53125 87.99609375 C-53.49315945 85.86888318 -53.37565703 83.74285148 -53.21875 81.62109375 C-53.05612351 74.4285678 -54.98036014 70.40387463 -59.09765625 64.6171875 C-60.53125 61.99609375 -60.53125 61.99609375 -60.47265625 59.38671875 C-59.38008733 56.61222839 -58.05659466 55.35184953 -55.90625 53.30859375 C-52.42716035 49.16882849 -52.25314043 46.24847806 -52.59423828 41.08276367 C-52.75936509 39.45363096 -52.95140711 37.8269822 -53.17138672 36.2043457 C-53.45703125 33.91015625 -53.45703125 33.91015625 -53.53125 29.99609375 C-51.875 27.96875 -51.875 27.96875 -49.53125 26.99609375 C-47.93001438 26.88076187 -46.32408397 26.82123417 -44.71875 26.80859375 C-41.9923791 26.53812674 -41.9923791 26.53812674 -39.53125 24.99609375 C-36.21565274 20.20469455 -34.41221562 14.46459644 -32.53125 8.99609375 C-31.28730469 9.10050781 -30.04335938 9.20492187 -28.76171875 9.3125 C-17.00344057 10.0906978 -17.00344057 10.0906978 -7.15625 4.43359375 C-6.36476563 3.58667969 -5.57328125 2.73976562 -4.7578125 1.8671875 C-2.53125 -0.00390625 -2.53125 -0.00390625 0 0 Z M-4.51171875 7.74609375 C-5.24003906 8.48859375 -5.96835937 9.23109375 -6.71875 9.99609375 C-9.95696501 12.95749361 -11.01442787 13.92226202 -15.46875 14.55859375 C-16.82747435 14.40762438 -18.1820361 14.21642409 -19.53125 13.99609375 C-21.36419037 13.82515957 -23.19754093 13.6585743 -25.03125 13.49609375 C-26.53168567 13.33339591 -28.03185922 13.16815499 -29.53125 12.99609375 C-31.61260307 18.29408339 -33.24416613 23.45173246 -34.53125 28.99609375 C-40.96625 30.48109375 -40.96625 30.48109375 -47.53125 31.99609375 C-47.45003906 33.03507812 -47.36882812 34.0740625 -47.28515625 35.14453125 C-46.60533218 47.81480934 -46.60533218 47.81480934 -51.09375 53.68359375 C-51.75503906 54.40933594 -52.41632813 55.13507813 -53.09765625 55.8828125 C-54.79236385 57.92436635 -54.79236385 57.92436635 -54.40234375 60.5546875 C-53.54117568 62.96827514 -52.62639854 64.39570631 -51.03125 66.37109375 C-48.21196575 70.48614932 -48.38684095 73.70655061 -48.46875 78.62109375 C-48.49407646 82.52784876 -48.49407646 82.52784876 -47.53125 85.99609375 C-44.64229954 88.13063318 -41.86219027 89.15381929 -38.5 90.390625 C-33.80069627 92.93195899 -32.84165856 96.70205086 -31.203125 101.58203125 C-30.98140625 102.37867188 -30.7596875 103.1753125 -30.53125 103.99609375 C-29.96728516 103.96990967 -29.40332031 103.94372559 -28.82226562 103.91674805 C-26.22555275 103.81174174 -23.6292878 103.74745002 -21.03125 103.68359375 C-20.144375 103.64169922 -19.2575 103.59980469 -18.34375 103.55664062 C-12.43985389 103.44811312 -8.93241333 104.3536023 -4.17456055 107.90722656 C-2.48622599 109.2359307 -2.48622599 109.2359307 0.15625 109.05859375 C2.60554715 108.10425764 2.60554715 108.10425764 4.4375 105.9453125 C8.94644923 103.04587221 13.0447345 103.56322014 18.28125 103.74609375 C19.26029297 103.76414062 20.23933594 103.7821875 21.24804688 103.80078125 C23.65595771 103.84776488 26.06184335 103.91343681 28.46875 103.99609375 C28.83484375 103.11566406 29.2009375 102.23523438 29.578125 101.328125 C32.61700765 94.80899818 34.89037545 90.52315481 41.90625 87.68359375 C43.74622827 87.07628804 45.59702148 86.49706542 47.46875 85.99609375 C47.2521875 84.80113281 47.2521875 84.80113281 47.03125 83.58203125 C46.845625 82.52242188 46.66 81.4628125 46.46875 80.37109375 C46.283125 79.32695312 46.0975 78.2828125 45.90625 77.20703125 C44.79578863 69.05703796 44.79578863 69.05703796 47 65.58203125 C47.6496875 64.85242188 48.299375 64.1228125 48.96875 63.37109375 C52.17684359 59.83947513 52.17684359 59.83947513 52.46875 54.99609375 C51.18530092 53.31770815 51.18530092 53.31770815 49.53125 51.68359375 C44.93940228 46.01131127 45.48687366 38.95557897 45.46875 31.99609375 C44.4375 31.70734375 43.40625 31.41859375 42.34375 31.12109375 C41.38976318 30.83564697 41.38976318 30.83564697 40.41650391 30.54443359 C38.6928958 30.05919621 36.93648036 29.69400734 35.1796875 29.34765625 C32.46875 27.99609375 32.46875 27.99609375 31.0078125 24.51953125 C30.67685995 23.14276864 30.37292438 21.75928197 30.09375 20.37109375 C29.93003906 19.6646875 29.76632812 18.95828125 29.59765625 18.23046875 C29.1980195 16.49087349 28.830242 14.74401387 28.46875 12.99609375 C27.20160156 13.07730469 25.93445313 13.15851563 24.62890625 13.2421875 C9.30452321 13.92327119 9.30452321 13.92327119 3.96875 9.49609375 C3.3396875 8.84640625 2.710625 8.19671875 2.0625 7.52734375 C-0.48091734 5.08366827 -1.97533137 5.50486782 -4.51171875 7.74609375 Z " transform="translate(465.53125,203.00390625)" style="fill: #E0E1E1;"/><path d="M0 0 C3.54450396 -0.51690683 5.7948434 -0.74545769 8.89453125 1.171875 C16.48227818 7.66241209 23.019219 15.48175356 29.25 23.25 C34.12847729 29.3003535 39.44264017 34.9028887 44.76953125 40.5546875 C47.7135475 43.68118062 50.5710669 46.86882842 53.37109375 50.125 C55.33665089 52.38751181 57.35673309 54.59690683 59.375 56.8125 C62.3908983 60.14665893 65.26411876 63.54453501 68.0625 67.0625 C72.79784601 72.92530934 77.9496987 78.36232295 83.15258789 83.81079102 C89.64712002 90.61920018 95.77429367 97.71500042 101.875 104.875 C106.82489368 110.66972987 111.87095261 116.36285226 117 122 C115.56184472 111.91084745 113.25287314 102.05461678 110.91668701 92.1434021 C110.24005317 89.27026354 109.56986835 86.39567928 108.90087891 83.52075195 C106.99947928 75.36970377 105.08096835 67.22644122 103.0078125 59.1171875 C96.64663258 34.1884847 96.64663258 34.1884847 100.16015625 24.94921875 C103.82100427 19.08098042 108.74139549 16.37834009 115.015625 13.80859375 C115.67149597 13.5366066 116.32736694 13.26461945 117.00311279 12.98439026 C119.08142228 12.12532955 121.16543569 11.28125222 123.25 10.4375 C124.63191124 9.86881158 126.01342534 9.29915709 127.39453125 8.72851562 C131.25662644 7.13634445 135.12783945 5.56752649 139 4 C140.55557617 3.36022217 140.55557617 3.36022217 142.14257812 2.70751953 C143.03912109 2.34126465 143.93566406 1.97500977 144.859375 1.59765625 C145.62217773 1.28449463 146.38498047 0.97133301 147.17089844 0.64868164 C149 0 149 0 151 0 C150.36425781 2.33447266 150.36425781 2.33447266 149 5 C146.42480469 6.46630859 146.42480469 6.46630859 143.171875 7.6484375 C141.9852124 8.0930835 140.7985498 8.53772949 139.57592773 8.99584961 C138.63703201 9.33397171 138.63703201 9.33397171 137.6791687 9.67892456 C134.46510628 10.83861055 131.2750203 12.06109289 128.08203125 13.27734375 C126.2424585 13.97512939 126.2424585 13.97512939 124.36572266 14.68701172 C120.30019502 16.27299805 116.34164996 17.98981417 112.4375 19.9375 C110.91962891 20.69353516 110.91962891 20.69353516 109.37109375 21.46484375 C106.78526048 23.13903234 105.57558568 24.36337545 104 27 C103.199705 36.44206926 106.25683774 46.22526007 108.57952881 55.30895996 C109.20102097 57.74039753 109.80952649 60.17476714 110.41455078 62.61035156 C111.22722562 65.88147657 112.04327215 69.15172587 112.86181641 72.42138672 C125.32053227 122.35893546 125.32053227 122.35893546 122 129 C117.19777641 128.85447807 115.04447952 126.49432095 111.92578125 123.1953125 C109.06667119 119.93604302 106.37673301 116.54621601 103.66015625 113.16796875 C99.9852491 108.70812997 95.98187682 104.54776376 92.02001953 100.34448242 C88.51922729 96.63018084 85.0886878 92.87949941 81.76171875 89.0078125 C79.89784706 86.88357735 77.98347138 84.8099026 76.06201172 82.73779297 C72.12448894 78.48987084 68.30587329 74.2155202 64.6875 69.6875 C59.83445921 63.65398983 54.53733038 58.07590425 49.23046875 52.4453125 C46.2864525 49.31881938 43.4289331 46.13117158 40.62890625 42.875 C38.66334911 40.61248819 36.64326691 38.40309317 34.625 36.1875 C31.57141133 32.81059018 28.65570795 29.36782868 25.8125 25.8125 C21.95846195 21.09299376 18.00574629 16.47397125 13.9375 11.9375 C13.37200439 11.28177002 12.80650879 10.62604004 12.22387695 9.95043945 C8.10322331 5.4312998 5.04949352 3.96076294 -1 3 C-0.67 2.01 -0.34 1.02 0 0 Z " transform="translate(67,94)" style="fill: #04B4F5;"/><path d="M0 0 C0.99 1.485 0.99 1.485 2 3 C2.72896484 4.04027344 2.72896484 4.04027344 3.47265625 5.1015625 C7.69971784 11.81085436 8.6918268 17.31073316 8.68579102 25.07275391 C8.71458768 29.59121296 9.13023943 32.44541021 12 36 C13.78735041 37.34797293 13.78735041 37.34797293 15.8125 38.1875 C16.45832031 38.49042969 17.10414063 38.79335938 17.76953125 39.10546875 C20.09737726 40.10122049 20.09737726 40.10122049 23.05859375 40.73828125 C26.9586964 42.41123365 27.57356193 44.16814155 29.25 48 C31.10768824 52.35456407 31.10768824 52.35456407 34 56 C35.94109458 56.14587512 35.94109458 56.14587512 38.1484375 55.9140625 C48.71051351 55.31188356 55.22783084 55.13176274 63.4921875 62.34765625 C65.92464174 64.28524458 65.92464174 64.28524458 69.0546875 63.96875 C72.25685767 62.91551631 73.78580308 61.69634718 76.25 59.4375 C82.499812 54.73580657 88.58692708 55.52585306 96.0234375 55.94921875 C100.47811018 56.16415894 100.47811018 56.16415894 104 54 C105.06492842 51.81050717 106.03201866 49.57260065 106.9375 47.3125 C110.1556987 40.00619344 113.8565174 37.53783648 121.20703125 34.33203125 C124.25632485 33.17042689 124.25632485 33.17042689 126 30 C126.16240605 28.04869877 126.16240605 28.04869877 125.94921875 25.9375 C125.43214021 16.32413995 125.32975323 9.78119721 131.37109375 1.73828125 C132.17740234 0.87783203 132.17740234 0.87783203 133 0 C133.33 0 133.66 0 134 0 C134.13806703 1.49726023 134.23335319 2.99847195 134.3125 4.5 C134.39951172 5.75296875 134.39951172 5.75296875 134.48828125 7.03125 C133.9786755 10.12965297 133.28591785 11.20538623 131.51953125 13.70703125 C128.35917125 18.45009237 128.3251134 22.6126722 128.375 28.1875 C128.375 39.13473684 128.375 39.13473684 125 43 C122.15234375 45.01953125 122.15234375 45.01953125 118.9375 46.8125 C117.87402344 47.41707031 116.81054688 48.02164063 115.71484375 48.64453125 C113 50 113 50 111 50 C110.773125 50.825 110.54625 51.65 110.3125 52.5 C108.42466423 57.53422871 105.81958443 62.18041557 102 66 C100.07983398 66.1159668 100.07983398 66.1159668 97.74609375 65.94921875 C86.38249487 64.9343945 86.38249487 64.9343945 76.375 69.4375 C75.22421404 70.60002868 74.0921811 71.78224728 73 73 C70.16425377 74.41787312 68.14759782 74.27320226 65 74 C62.3671875 72.50390625 62.3671875 72.50390625 59.875 70.5625 C53.39386628 65.56536419 48.23556801 65.89938979 40.28710938 66.390625 C36.10972028 66.50819444 34.52121991 66.40641066 31.109375 63.74609375 C29.35128917 61.45732646 27.90982749 59.41308977 26.6875 56.8125 C26.19830078 55.80123047 26.19830078 55.80123047 25.69921875 54.76953125 C25 53 25 53 25 51 C24.41992188 50.90203125 23.83984375 50.8040625 23.2421875 50.703125 C18.03972102 49.70727333 14.07323154 48.58832302 10 45 C6.95710874 40.27827219 6.86994509 36.38847817 6.6875 30.8125 C6.39123277 23.97815373 4.64168394 19.74350687 1.30078125 13.875 C-0.77469358 9.28776433 -0.52367914 4.92646301 0 0 Z " transform="translate(397,265)" style="fill: #136481;"/><path d="M0 0 C0.33 0 0.66 0 1 0 C1.89136863 15.35134858 -0.79325416 31.07403258 -4.4375 45.9375 C-4.63045654 46.73478516 -4.82341309 47.53207031 -5.0222168 48.35351562 C-7.16739752 56.5879313 -9.73290704 63.06568993 -17 68 C-19.7175641 69.40220746 -22.51489202 70.5068516 -25.37109375 71.59375 C-26.57017113 72.06476135 -26.57017113 72.06476135 -27.79347229 72.54528809 C-29.4815653 73.20596092 -31.17179972 73.86118545 -32.86401367 74.51123047 C-35.40297581 75.48673532 -37.93527815 76.47801645 -40.46679688 77.47265625 C-72.02478487 89.8051812 -72.02478487 89.8051812 -79 87 C-84.8647599 83.13101168 -88.808591 77.59227236 -92.8125 71.9375 C-94.04974755 70.22451333 -95.28803133 68.51227463 -96.52734375 66.80078125 C-97.42235596 65.55868896 -97.42235596 65.55868896 -98.33544922 64.29150391 C-100.46461278 61.3603908 -102.65648586 58.48917308 -104.875 55.625 C-105.64457031 54.62855469 -106.41414063 53.63210938 -107.20703125 52.60546875 C-108.79099841 50.55878315 -110.3776868 48.5142687 -111.96630859 46.47119141 C-114.17121474 43.63135165 -116.36719719 40.78476761 -118.5625 37.9375 C-119.27841309 37.01984863 -119.99432617 36.10219727 -120.73193359 35.15673828 C-121.39918457 34.28903809 -122.06643555 33.42133789 -122.75390625 32.52734375 C-123.35533447 31.75124756 -123.9567627 30.97515137 -124.57641602 30.17553711 C-127.53815551 25.64937339 -127.08725839 21.23550352 -127 16 C-122.90429285 19.73608409 -119.85442568 24.1538671 -116.625 28.625 C-111.28706134 35.9501928 -105.81370087 43.14354651 -100.20410156 50.26220703 C-95.34124108 56.47037663 -90.73791868 62.8479232 -86.26147461 69.34008789 C-85.50942749 70.40924438 -85.50942749 70.40924438 -84.7421875 71.5 C-84.3076123 72.1290625 -83.87303711 72.758125 -83.42529297 73.40625 C-81.21278937 75.88025197 -78.89728072 76.81508742 -75.6875 77.4765625 C-65.81127917 78.02205144 -57.9251533 74.10779088 -49.06933594 70.28417969 C-45.63789402 68.84849845 -42.17332509 67.51260319 -38.6953125 66.1953125 C-37.42965322 65.71273639 -36.16402825 65.23007028 -34.8984375 64.74731445 C-32.42502996 63.8045349 -29.94832079 62.87273814 -27.46875 61.94604492 C-18.84755493 58.62613071 -12.7866164 55.92013861 -8.84033203 47.19140625 C-7.37298356 43.36487519 -6.35408889 39.49051037 -5.4375 35.5 C-5.22843018 34.61159424 -5.01936035 33.72318848 -4.80395508 32.80786133 C-2.37994317 21.9948395 -1.15427687 11.00947265 0 0 Z " transform="translate(384,231)" style="fill: #136381;"/><path d="M0 0 C0.33 0 0.66 0 1 0 C1.48862891 28.24650979 -1.01536599 55.44690572 -5 83.375 C-5.17926025 84.63539093 -5.35852051 85.89578186 -5.54321289 87.19436646 C-6.06323635 90.82598773 -6.59199373 94.45620091 -7.125 98.0859375 C-7.36252991 99.73116142 -7.36252991 99.73116142 -7.6048584 101.40962219 C-8.40423781 106.75986144 -9.37318198 111.84043927 -11 117 C-11.31468399 118.45354035 -11.60848043 119.91186198 -11.875 121.375 C-12.93917796 126.89014449 -14.22736185 132.34480886 -15.53857422 137.80541992 C-16.44495485 141.58848203 -17.27433847 145.36481874 -18 149.1875 C-19.3213975 154.22532797 -21.22718402 157.43575061 -25.125 160.875 C-33.8434565 164.28656993 -47.0655642 162.01024806 -56 160 C-56.680625 159.649375 -57.36125 159.29875 -58.0625 158.9375 C-60.50253039 157.75684014 -62.32231956 157.78289077 -65 158 C-65.33 158.33 -65.66 158.66 -66 159 C-74.24264297 159.45208373 -82.02209683 159.23941142 -90 157 C-90 156.34 -90 155.68 -90 155 C-90.63437988 154.75813965 -91.26875977 154.5162793 -91.92236328 154.26708984 C-94 153 -94 153 -94.82373047 151.09619141 C-96.10712867 143.82859341 -96.23178348 136.74306008 -96.125 129.375 C-96.11597656 128.18003906 -96.10695313 126.98507813 -96.09765625 125.75390625 C-96.07431077 122.83572166 -96.04156656 119.91797224 -96 117 C-93.4927472 120.7608792 -93.82524998 122.71096924 -93.9375 127.1875 C-94.54134661 136.58945849 -94.54134661 136.58945849 -91.51171875 145.13671875 C-87.85343555 147.85056181 -84.52404577 147.84339513 -80.0625 148.125 C-79.16023682 148.1957373 -78.25797363 148.26647461 -77.32836914 148.33935547 C-75.32535232 148.49272377 -73.32161824 148.63691437 -71.31738281 148.7734375 C-67.73867671 149.01784722 -64.16255532 149.28929255 -60.5859375 149.5625 C-58.03656807 149.75148625 -55.48708895 149.93899883 -52.9375 150.125 C-51.73810791 150.21281738 -50.53871582 150.30063477 -49.30297852 150.39111328 C-36.18794421 152.07649687 -36.18794421 152.07649687 -23.875 149.25 C-20.97698178 145.77237813 -19.78025428 142.66164625 -19 138.2265625 C-18.835 137.3190625 -18.67 136.4115625 -18.5 135.4765625 C-18.335 134.53554687 -18.17 133.59453125 -18 132.625 C-16.9887471 126.9051008 -15.87718234 121.50692081 -14 116 C-13.60148319 113.73652868 -13.24721575 111.46482172 -12.9375 109.1875 C-12.10602094 103.10602094 -12.10602094 103.10602094 -11 102 C-10.5161563 99.48807351 -10.08829157 96.98755646 -9.6953125 94.4609375 C-9.57152725 93.68069717 -9.447742 92.90045685 -9.32020569 92.09657288 C-8.91543746 89.52366031 -8.51904978 86.94957505 -8.125 84.375 C-7.98994049 83.49675568 -7.85488098 82.61851135 -7.71572876 81.71365356 C-3.90159817 56.75124959 -0.76472738 31.38841985 -1.04296875 6.09375 C-1 3 -1 3 0 0 Z " transform="translate(527,38)" style="fill: #126481;"/><path d="M0 0 C2.5625 0.4375 2.5625 0.4375 4.1171875 2.26953125 C6.230464 6.90160488 6.66033782 11.53587159 7.25 16.5625 C7.44432617 18.03589844 7.44432617 18.03589844 7.64257812 19.5390625 C9.86906098 37.445168 9.86906098 37.445168 7.0456543 41.75048828 C6.55621338 42.30720215 6.06677246 42.86391602 5.5625 43.4375 C3.1875 43.125 3.1875 43.125 0.5625 42.4375 C-1.45285182 39.41447226 -1.74212477 38.40456498 -2.03515625 34.9453125 C-2.11443359 34.07519531 -2.19371094 33.20507812 -2.27539062 32.30859375 C-2.34951172 31.40238281 -2.42363281 30.49617188 -2.5 29.5625 C-2.94398149 24.44753969 -3.42508402 19.4733967 -4.4375 14.4375 C-4.55122701 12.37718967 -4.61218381 10.31340695 -4.625 8.25 C-4.63917969 7.20457031 -4.65335937 6.15914062 -4.66796875 5.08203125 C-4.35884546 1.53497251 -3.50219365 0.62859886 0 0 Z " transform="translate(352.4375,22.5625)" style="fill: #F7FCFE;"/><path d="M0 0 C0.94875 0.04125 1.8975 0.0825 2.875 0.125 C5.78305482 5.94110963 3.57127215 14.35048582 2.5 20.5 C2.37367188 21.29277344 2.24734375 22.08554688 2.1171875 22.90234375 C1.98828125 23.66417969 1.859375 24.42601562 1.7265625 25.2109375 C1.61135254 25.8920459 1.49614258 26.5731543 1.37744141 27.27490234 C0.875 29.125 0.875 29.125 -1.125 32.125 C-4.125 32.4375 -4.125 32.4375 -7.125 32.125 C-9.125 30.125 -9.125 30.125 -9.20703125 27.61328125 C-6.88684834 0.27547393 -6.88684834 0.27547393 0 0 Z " transform="translate(369.125,218.875)" style="fill: #F7FCFE;"/><path d="M0 0 C0.33 0 0.66 0 1 0 C1.13535156 0.91394531 1.27070313 1.82789062 1.41015625 2.76953125 C2.83045866 11.76709493 4.83590334 20.51363096 7.1875 29.3125 C10.15318029 40.44825998 12.80808999 51.62782224 15.3125 62.875 C15.56850479 64.0138414 15.56850479 64.0138414 15.8296814 65.1756897 C21.19961855 89.11342814 21.19961855 89.11342814 21 98 C20.34 97.67 19.68 97.34 19 97 C18.32080078 94.65063477 18.32080078 94.65063477 17.6953125 91.44140625 C17.44724854 90.21204346 17.19918457 88.98268066 16.94360352 87.71606445 C16.81108185 87.04306305 16.67856018 86.37006165 16.54202271 85.67666626 C14.25970862 74.10609378 11.70912731 62.61912564 8.87109375 51.171875 C8.59930298 50.06976181 8.32751221 48.96764862 8.04748535 47.83213806 C6.95313002 43.40064086 5.85757799 38.9697884 4.72979736 34.54666138 C-1.04471165 11.88832298 -1.04471165 11.88832298 0 0 Z " transform="translate(166,122)" style="fill: #126685;"/><path d="M0 0 C4.64100049 0.04441149 7.26169062 1.20554179 10.8125 4.3125 C11.81746852 7.32740557 11.91585303 9.35431692 11.875 12.5 C11.86597656 13.40105469 11.85695313 14.30210938 11.84765625 15.23046875 C11.83605469 15.91753906 11.82445312 16.60460937 11.8125 17.3125 C9.5025 17.6425 7.1925 17.9725 4.8125 18.3125 C2.52236347 14.8772952 2.63407027 13.327169 2.8125 9.3125 C1.884375 9.374375 0.95625 9.43625 0 9.5 C-3.1875 9.3125 -3.1875 9.3125 -5.125 8.125 C-6.1875 6.3125 -6.1875 6.3125 -5.9375 3.6875 C-4.75355428 -0.06166146 -3.75262614 0.11943031 0 0 Z " transform="translate(507.1875,26.6875)" style="fill: #F2FAFE;"/><path d="M0 0 C2 2 2 2 2.5625 4.1875 C1.4628719 9.68564048 -3.79611301 13.24206162 -8.125 16.5 C-11 18 -11 18 -13.8125 17.8125 C-16 17 -16 17 -17 16 C-17.3828125 13.2734375 -17.3828125 13.2734375 -17 10 C-14.8046875 7.2265625 -14.8046875 7.2265625 -11.875 4.625 C-10.92367188 3.75101563 -9.97234375 2.87703125 -8.9921875 1.9765625 C-5.60563259 -0.26050902 -3.97576411 -0.59692776 0 0 Z " transform="translate(36,129)" style="fill: #F6FCFE;"/><path d="M0 0 C-0.97646484 0.66902344 -0.97646484 0.66902344 -1.97265625 1.3515625 C-5.49845502 5.95751928 -4.4740083 11.59268338 -4.40039062 17.203125 C-4.49452116 25.02149684 -4.49452116 25.02149684 -7.359375 28.578125 C-9.89711926 30.90564192 -11.71476484 32.06136138 -15 33 C-13.30876605 28.31658291 -13.30876605 28.31658291 -11.45703125 26.41796875 C-9.19495863 22.66401982 -9.54568602 18.86677533 -9.5 14.5625 C-9.38927897 4.17844932 -9.38927897 4.17844932 -6 0 C-3.50907189 -1.24546405 -2.58919267 -0.7767578 0 0 Z " transform="translate(414,225)" style="fill: #0EAEE9;"/><path d="M0 0 C2.5 0.25 2.5 0.25 4.5 2.25 C4.75 4.75 4.75 4.75 4.5 7.25 C3.84 7.91 3.18 8.57 2.5 9.25 C-1.125 8.875 -1.125 8.875 -4.5 8.25 C-4.625 5.375 -4.625 5.375 -4.5 2.25 C-2.5 0.25 -2.5 0.25 0 0 Z " transform="translate(357.5,79.75)" style="fill: #E3F6FD;"/><path d="M0 0 C2.375 -0.125 2.375 -0.125 5 0 C7 2 7 2 7.1875 4.5625 C7 7 7 7 6 8 C4.00041636 8.04080783 1.99954746 8.04254356 0 8 C-0.79953138 4.71303767 -1.09658936 3.28976808 0 0 Z " transform="translate(359,257)" style="fill: #F0FAFD;"/><path d="M0 0 C2.5625 0.1875 2.5625 0.1875 4.5625 2.1875 C4.1875 5.3125 4.1875 5.3125 3.5625 8.1875 C1.1875 8.3125 1.1875 8.3125 -1.4375 8.1875 C-3.4375 6.1875 -3.4375 6.1875 -3.625 3.625 C-3.37291261 0.34786389 -3.27713611 0.25208739 0 0 Z " transform="translate(514.4375,47.8125)" style="fill: #DEF4FC;"/><path d="M0 0 C-0.74571052 4.64802093 -1.6282539 9.2618805 -2.5625 13.875 C-2.70107422 14.56335938 -2.83964844 15.25171875 -2.98242188 15.9609375 C-3.32072827 17.64080374 -3.66023912 19.32042734 -4 21 C-4.66 20.67 -5.32 20.34 -6 20 C-6.45210724 13.36909389 -4.92708327 7.33041863 -3 1 C-2 0 -2 0 0 0 Z " transform="translate(518,144)" style="fill: #11607C;"/><path d="M0 0 C-0.598125 0.268125 -1.19625 0.53625 -1.8125 0.8125 C-4.03033235 1.88236968 -4.03033235 1.88236968 -5.5625 3.5625 C-7 5 -7 5 -10 6 C-9.67 4.35 -9.34 2.7 -9 1 C-5.92677456 0.08941469 -3.19902639 -0.08886184 0 0 Z " transform="translate(71,93)" style="fill: #04AAE7;"/></svg>