<?xml version="1.0" encoding="UTF-8"?>
<svg width="1257px" height="252px" viewBox="0 0 1257 252" version="1.1" xmlns="http://www.w3.org/2000/svg" xmlns:xlink="http://www.w3.org/1999/xlink">
    <title>MullvadVPN_logo_Landscape_RGB_Color_negative</title>
    <g id="Page-1" stroke="none" stroke-width="1" fill="none" fill-rule="evenodd">
        <g id="MullvadVPN_logo_Landscape_RGB_Color_negative">
            <g id="mole">
                <path d="M0,126 C0,195.6 56.5,252 126,252 C195.5,252 252,195.6 252,126 C252,56.4 195.6,0 126,0 C56.4,0 0,56.4 0,126 L0,126 L0,126 L0,126 Z" id="bg" fill="#192E45"></path>
                <g id="body" transform="translate(16.537031, 66.800000)">
                    <path d="M7.36296948,29.8 L0.262969484,44.2 L9.86296948,30.8 C9.86296948,30.9 9.26296948,50.1 9.26296948,50.1 L11.9629695,35.6 C19.1629695,49.3 35.0629695,70.4 57.3629695,86.1 C59.0629695,87.3 61.2629695,89.4 61.9629695,90.2 C61.9629695,90.2 83.2629695,101 116.062969,76 C116.362969,75.8 116.762969,75.6 117.062969,75.4 L117.562969,75.7 L124.762969,80.5 C122.262969,79.8 117.462969,78.6 117.462969,78.6 C101.662969,96.8 75.9629695,99.8 62.1629695,90.6 C61.5629695,90.2 58.1629695,91.6 57.5629695,93.6 C57.1629695,94.7 57.5629695,95.9 58.0629695,96.8 C60.8629695,102 65.0629695,101.5 63.0629695,107.6 C61.6629695,110.9 59.6629695,114.1 57.4629695,117.1 C52.8629695,123.3 45.6629695,128.8 46.3629695,132.1 C78.9629695,172.3 152.462969,166.7 180.462969,130.8 C180.062969,125.6 171.862969,123.1 166.162969,110.4 C167.762969,110.9 170.162969,111.6 170.162969,111.5 C170.162969,111.4 163.362969,100.4 163.062969,99.3 L167.462969,99.6 C167.462969,99.6 161.662969,92.4 161.462969,91.7 L167.362969,90.9 C167.362969,90.9 159.962969,82.4 159.862969,81.7 L167.362969,82.9 L159.162969,73 L163.062969,73 L158.462969,66.3 L121.162969,51.6 C106.862969,42.7 94.1629695,31.8 84.5629695,23.4 L65.2629695,14 C46.7629695,12.6 29.4629695,13.1 18.8629695,15.2 L25.6629695,3.6 L15.7629695,15.4 C15.1629695,15.2 14.4629695,15 14.4629695,15 L15.1629695,-2.84217094e-14 L11.8629695,14 L7.36296948,29.8 Z" id="fur" fill="#D2943B"></path>
                    <path d="M11.8629695,14 C6.96296948,11.7 1.26296948,15 0.262969484,19.5 C-0.937030516,23.8 2.06296948,29.1 7.36296948,29.8 C12.3629695,26.7 16.6629695,18.7 11.8629695,14 Z" id="nose" fill="#FFCD86"></path>
                </g>
                <g id="helmet" transform="translate(71.500000, 35.408839)">
                    <path d="M29.7,34.491161 C28.2,30.391161 28.6,25.091161 30.7,20.091161 C33.7,13.191161 39.4,8.59116102 44.8,8.59116102 C45.9,8.59116102 46.9,8.79116102 47.9,9.19116102 C51,6.39116102 54.6,4.09116102 58.6,2.49116102 C80.6,-6.30883898 112.9,9.39116102 121.2,30.991161 C125.2,41.491161 124,52.891161 120.6,63.391161 C117.8,71.991161 107.6,84.391161 111.4,93.691161 C109.9,93.291161 78.6,82.691161 69.6,77.891161 C55.5,69.091161 42.9,58.291161 33.4,49.991161 L33.1,49.691161 L1.1,34.491161 C0.7,34.291161 0.3,34.091161 2.84217094e-14,33.891161 C4.4,34.091161 21.9,36.191161 29.7,34.491161" fill="#FFD524"></path>
                    <g id="lamp" transform="translate(29.416300, 9.284991)" fill-rule="nonzero">
                        <ellipse id="lamp-light" fill="#FFFFFF" transform="translate(12.870740, 15.705990) rotate(-66.377840) translate(-12.870740, -15.705990) " cx="12.87074" cy="15.70599" rx="13.5998839" ry="8.09993087"></ellipse>
                        <path d="M19.1837,1.40617 C13.8837,-0.89383 6.7837,3.60617 3.2837,11.50617 C-0.2163,19.40617 1.3837,27.60617 6.6837,30.00617 C11.9837,32.30617 19.0837,27.80617 22.5837,19.90617 C26.0837,12.00617 24.4837,3.80617 19.1837,1.40617 Z M19.6837,18.70617 C16.8837,25.00617 11.5837,28.80617 7.8837,27.20617 C4.0837,25.50617 3.2837,19.10617 6.0837,12.70617 C8.8837,6.40617 14.1837,2.60617 17.9837,4.20617 C21.6837,5.90617 22.4837,12.40617 19.6837,18.70617 Z" id="lamp-ring" fill="#192E45"></path>
                    </g>
                </g>
            </g>
            <g id="text" transform="translate(297.000000, 74.000000)" fill="#FFFFFF" fill-rule="nonzero">
                <path d="M0,1.7 C0,0.8 0.6,0.2 1.5,0.2 L19.3,0.2 C20.5,0.2 21.3,0.6 21.7,1.7 L47.5,60 L48.1,60 L73.4,1.7 C73.8,0.7 74.6,0.2 75.8,0.2 L93.3,0.2 C94.2,0.2 94.8,0.8 94.8,1.7 L94.8,100.9 C94.8,101.8 94.2,102.4 93.3,102.4 L76.3,102.4 C75.4,102.4 74.8,101.8 74.8,100.9 L74.8,43.4 L74.2,43.4 L55.3,86.5 C54.7,87.9 53.8,88.5 52.5,88.5 L42.2,88.5 C40.9,88.5 40,87.9 39.4,86.5 L20.5,43.4 L19.9,43.4 L19.9,100.9 C19.9,101.8 19.3,102.4 18.4,102.4 L1.5,102.4 C0.6,102.4 0,101.8 0,100.9 L0,1.7 Z" id="Path"></path>
                <path d="M117.1,64.8 L117.1,1.7 C117.1,0.8 117.7,0.2 118.6,0.2 L137.6,0.2 C138.5,0.2 139.1,0.8 139.1,1.7 L139.1,65.4 C139.1,77.5 145.9,84.4 156.2,84.4 C166.4,84.4 173.1,77.5 173.1,65.4 L173.1,1.7 C173.1,0.8 173.7,0.2 174.6,0.2 L193.6,0.2 C194.5,0.2 195.1,0.8 195.1,1.7 L195.1,64.8 C195.1,90.1 178.9,104 156.1,104 C133.3,104 117.1,90.2 117.1,64.8 Z" id="Path"></path>
                <path d="M217.3,1.7 C217.3,0.8 217.9,0.2 218.8,0.2 L237.8,0.2 C238.7,0.2 239.3,0.8 239.3,1.7 L239.3,81.8 C239.3,82.4 239.6,82.7 240.2,82.7 L285.2,82.7 C286.1,82.7 286.7,83.3 286.7,84.2 L286.7,100.8 C286.7,101.7 286.1,102.3 285.2,102.3 L218.8,102.3 C217.9,102.3 217.3,101.7 217.3,100.8 L217.3,1.7 Z" id="Path"></path>
                <path d="M302.9,1.7 C302.9,0.8 303.5,0.2 304.4,0.2 L323.4,0.2 C324.3,0.2 324.9,0.8 324.9,1.7 L324.9,81.8 C324.9,82.4 325.2,82.7 325.8,82.7 L370.8,82.7 C371.7,82.7 372.3,83.3 372.3,84.2 L372.3,100.8 C372.3,101.7 371.7,102.3 370.8,102.3 L304.4,102.3 C303.5,102.3 302.9,101.7 302.9,100.8 L302.9,1.7 Z" id="Path"></path>
                <path d="M403.9,102.2 C402.9,102.2 402.3,101.6 402,100.7 L369.6,1.7 C369.3,0.6 369.9,0.1 370.9,0.1 L390.4,0.1 C391.4,0.1 392.1,0.5 392.4,1.6 L412.8,68.6 L413.2,68.6 L433,1.6 C433.3,0.6 433.9,0.1 434.9,0.1 L454.2,0.1 C455.1,0.1 455.7,0.7 455.4,1.7 L423,100.7 C422.7,101.6 422.1,102.2 421.2,102.2 L403.9,102.2 L403.9,102.2 Z" id="Path"></path>
                <path d="M491.4,1.7 C491.7,0.8 492.3,0.2 493.4,0.2 L512.3,0.2 C513.3,0.2 513.9,0.8 514.2,1.7 L548.7,100.9 C549,101.8 548.7,102.4 547.7,102.4 L528.2,102.4 C527.2,102.4 526.5,101.9 526.2,100.9 L520.4,83.1 L484.7,83.1 L479,100.9 C478.7,101.9 478.1,102.4 477,102.4 L457.4,102.4 C456.4,102.4 456.1,101.8 456.4,100.9 L491.4,1.7 Z M514.4,64.1 L502.9,28.2 L502.5,28.2 L491,64 L514.4,64.1 L514.4,64.1 Z" id="Shape"></path>
                <path d="M563.6,1.7 C563.6,0.8 564.2,0.2 565.1,0.2 L603,0.2 C620.8,0.2 633.3,7.8 638.2,23.1 C640,28.8 640.9,34.5 640.9,51.2 C640.9,67.9 640,73.5 638.2,79.3 C633.3,94.6 620.8,102.2 603,102.2 L565.1,102.2 C564.2,102.2 563.6,101.6 563.6,100.7 L563.6,1.7 Z M586.5,82.7 L598,82.7 C608.2,82.7 614.3,79.7 616.9,71.5 C617.9,68.5 618.6,64.6 618.6,51.4 C618.6,38.2 618,34.3 616.9,31.3 C614.4,23.1 608.2,20.1 598,20.1 L586.5,20.1 C585.9,20.1 585.6,20.4 585.6,21 L585.6,82 C585.6,82.2 585.9,82.7 586.5,82.7 Z" id="Shape"></path>
                <path d="M721.5,102.2 C720.4,102.2 719.8,101.6 719.5,100.7 L687.1,1.7 C686.8,0.6 687.4,0.1 688.4,0.1 L707.9,0.1 C708.9,0.1 709.6,0.5 709.9,1.6 L730.3,68.6 L730.7,68.6 L750.5,1.6 C750.8,0.6 751.4,0.1 752.4,0.1 L771.7,0.1 C772.6,0.1 773.2,0.7 772.9,1.7 L740.5,100.7 C740.2,101.6 739.6,102.2 738.7,102.2 L721.5,102.2 L721.5,102.2 Z" id="Path"></path>
                <path d="M789,102.2 C788.1,102.2 787.5,101.6 787.5,100.7 L787.5,1.5 C787.5,0.6 788.1,0 789,0 L828.6,0 C850.8,0 864.1,13.3 864.1,32.9 C864.1,52.1 850.6,65.7 828.6,65.7 L810.5,65.7 C809.9,65.7 809.6,66 809.6,66.6 L809.6,100.7 C809.6,101.6 809,102.2 808.1,102.2 L789,102.2 L789,102.2 Z M842.1,33.1 C842.1,24.9 836.6,19.3 827.3,19.3 L810.5,19.3 C809.9,19.3 809.6,19.6 809.6,20.2 L809.6,45.8 C809.6,46.4 809.9,46.7 810.5,46.7 L827.3,46.7 C836.5,46.8 842.1,41.4 842.1,33.1 Z" id="Shape"></path>
                <path d="M881.3,1.7 C881.3,0.8 881.9,0.2 882.8,0.2 L900.8,0.2 C901.8,0.2 902.8,0.6 903.3,1.7 L939.3,66 L940.1,66 L940.1,1.7 C940.1,0.8 940.7,0.2 941.6,0.2 L958.5,0.2 C959.4,0.2 960,0.8 960,1.7 L960,100.9 C960,101.8 959.4,102.4 958.5,102.4 L940.7,102.4 C939.5,102.4 938.7,101.9 938.2,100.9 L902.1,36.8 L901.3,36.8 L901.3,100.9 C901.3,101.8 900.7,102.4 899.8,102.4 L882.9,102.4 C882,102.4 881.4,101.8 881.4,100.9 L881.3,1.7 L881.3,1.7 Z" id="Path"></path>
            </g>
        </g>
    </g>
</svg>